<svg width="114" height="26" viewBox="0 0 114 26" fill="none" xmlns="http://www.w3.org/2000/svg">
<path d="M0 12.7472C0 11.1824 0.290491 9.6537 0.871472 8.16111C1.47666 6.64445 2.34813 5.27222 3.48589 4.04444C4.62364 2.81667 6.00347 1.84167 7.62538 1.11944C9.27149 0.373148 11.1234 0 13.181 0C15.6502 0 17.8047 0.517593 19.6444 1.55278C21.4842 2.56389 22.8519 3.91204 23.7476 5.59722L18.3372 9.425C18.0225 8.58241 17.5626 7.93241 16.9574 7.475C16.3764 7.01759 15.7349 6.70463 15.0329 6.53611C14.3551 6.34352 13.6894 6.24722 13.0358 6.24722C11.6801 6.24722 10.5666 6.58426 9.69513 7.25833C8.84786 7.93241 8.21847 8.78704 7.80694 9.82222C7.39541 10.8333 7.18964 11.8806 7.18964 12.9639C7.18964 14.1435 7.80694 16.2489 7.80694 16.2489L6 20.5L10 19C10 19 11.8738 19.7528 13.1084 19.7528C13.762 19.7528 14.4277 19.6565 15.1055 19.4639C15.7833 19.2472 16.4006 18.9102 16.9574 18.4528C17.5142 17.9954 17.9378 17.3815 18.2283 16.6111L24.0018 20.0417C23.4934 21.2935 22.6462 22.3648 21.46 23.2556C20.2738 24.1463 18.9303 24.8324 17.4294 25.3139C15.9286 25.7713 14.4398 26 12.9631 26C11.0507 26 9.2957 25.6269 7.698 24.8806C6.12451 24.1102 4.75679 23.0991 3.59482 21.8472C2.45707 20.5713 1.57349 19.1509 0.944095 17.5861C0.314698 15.9972 0 14.3843 0 12.7472Z" fill="#F59300"/>
<path d="M37.7516 26C35.7908 26 34.0115 25.6389 32.4138 24.9167C30.8161 24.1704 29.4363 23.1833 28.2743 21.9556C27.1366 20.7037 26.253 19.3074 25.6236 17.7667C25.0184 16.2019 24.7158 14.5889 24.7158 12.9278C24.7158 11.2185 25.0426 9.59352 25.6962 8.05278C26.3498 6.51204 27.2576 5.13982 28.4196 3.93611C29.6057 2.70833 30.9977 1.74537 32.5954 1.04722C34.2173 0.349074 35.9844 0 37.8968 0C39.8576 0 41.6369 0.373148 43.2346 1.11944C44.8323 1.84167 46.2 2.8287 47.3378 4.08056C48.4755 5.33241 49.347 6.74074 49.9522 8.30556C50.5816 9.8463 50.8963 11.4352 50.8963 13.0722C50.8963 14.7574 50.5695 16.3704 49.9159 17.9111C49.2865 19.4519 48.3787 20.8361 47.1925 22.0639C46.0306 23.2676 44.6507 24.2306 43.053 24.9528C41.4553 25.6509 39.6882 26 37.7516 26ZM31.9055 13C31.9055 14.1315 32.1112 15.2148 32.5228 16.25C32.9585 17.2852 33.6121 18.1278 34.4836 18.7778C35.3792 19.4278 36.4928 19.7528 37.8242 19.7528C39.204 19.7528 40.3176 19.4157 41.1649 18.7417C42.0363 18.0676 42.6778 17.213 43.0894 16.1778C43.5009 15.1185 43.7066 14.0352 43.7066 12.9278C43.7066 11.7722 43.4888 10.6889 43.053 9.67778C42.6173 8.66667 41.9637 7.84815 41.0922 7.22222C40.2208 6.57222 39.1193 6.24722 37.7879 6.24722C36.4323 6.24722 35.3187 6.58426 34.4473 7.25833C33.5758 7.90833 32.9343 8.75093 32.5228 9.78611C32.1112 10.7972 31.9055 11.8685 31.9055 13Z" fill="#F59300"/>
<path d="M53.8974 25.7833V0.144445H63.8104C66.6669 0.144445 69.0513 0.722222 70.9637 1.87778C72.9003 3.00926 74.3527 4.55 75.3211 6.5C76.3136 8.42593 76.8098 10.5685 76.8098 12.9278C76.8098 15.5278 76.2651 17.7907 75.1758 19.7167C74.1107 21.6426 72.5977 23.1352 70.6369 24.1944C68.7003 25.2537 66.4248 25.7833 63.8104 25.7833H53.8974ZM69.6202 12.9278C69.6202 10.9296 69.0997 9.3287 68.0588 8.125C67.0421 6.89722 65.6259 6.28333 63.8104 6.28333H60.9781V19.6444H63.8104C65.6743 19.6444 67.1026 19.0065 68.0951 17.7306C69.1118 16.4546 69.6202 14.8537 69.6202 12.9278Z" fill="#F59300"/>
<path d="M79.8898 25.7833V0.144445H86.9705V25.7833H79.8898Z" fill="#F59300"/>
<path d="M89.9982 12.7472C89.9982 11.1824 90.2887 9.6537 90.8697 8.16111C91.4749 6.64445 92.3463 5.27222 93.4841 4.04444C94.6218 2.81667 96.0017 1.84167 97.6236 1.11944C99.2697 0.373148 101.122 0 103.179 0C105.648 0 107.803 0.517593 109.643 1.55278C111.482 2.56389 112.85 3.91204 113.746 5.59722L108.335 9.425C108.021 8.58241 107.561 7.93241 106.956 7.475C106.375 7.01759 105.733 6.70463 105.031 6.53611C104.353 6.34352 103.688 6.24722 103.034 6.24722C101.678 6.24722 100.565 6.58426 99.6933 7.25833C98.8461 7.93241 98.2167 8.78704 97.8051 9.82222C97.3936 10.8333 97.1879 11.8806 97.1879 12.9639C97.1879 14.1435 97.4178 15.2509 97.8778 16.2861C98.3619 17.3213 99.0397 18.1639 99.9112 18.8139C100.807 19.4398 101.872 19.7528 103.107 19.7528C103.76 19.7528 104.426 19.6565 105.104 19.4639C105.782 19.2472 106.399 18.9102 106.956 18.4528C107.512 17.9954 107.936 17.3815 108.227 16.6111L114 20.0417C113.492 21.2935 112.644 22.3648 111.458 23.2556C110.272 24.1463 108.929 24.8324 107.428 25.3139C105.927 25.7713 104.438 26 102.961 26C101.049 26 99.2939 25.6269 97.6962 24.8806C96.1227 24.1102 94.755 23.0991 93.593 21.8472C92.4553 20.5713 91.5717 19.1509 90.9423 17.5861C90.3129 15.9972 89.9982 14.3843 89.9982 12.7472Z" fill="#F59300"/>
</svg>
