<svg width="14" height="14" viewBox="0 0 14 14" fill="none" xmlns="http://www.w3.org/2000/svg">
<g clip-path="url(#clip0)">
<path d="M6.31309 6.92819C6.67865 7.1719 7.32009 7.17193 7.68573 6.92816C7.68579 6.92813 7.68587 6.92808 7.68592 6.92805L13.9167 2.77419C13.7123 2.18313 13.1505 1.75732 12.4909 1.75732H1.50783C0.848154 1.75732 0.286427 2.18313 0.0820312 2.77419L6.3129 6.92808C6.31298 6.92813 6.31304 6.92813 6.31309 6.92819Z" fill="#AAAAAA"/>
<path d="M8.14156 7.61048C8.14147 7.61054 8.14142 7.61059 8.14137 7.61062C7.82139 7.82393 7.41062 7.9306 7 7.9306C6.58929 7.9306 6.1787 7.82396 5.85869 7.61059C5.85864 7.61056 5.85861 7.61054 5.85855 7.61051L0 3.70483V10.7342C0 11.5659 0.676681 12.2426 1.50846 12.2426H12.4916C13.3233 12.2426 14 11.5659 14 10.7342V3.70483L8.14156 7.61048Z" fill="#AAAAAA"/>
</g>
<defs>
<clipPath id="clip0">
<rect width="14" height="14" fill="white"/>
</clipPath>
</defs>
</svg>
