<svg width="70" height="70" viewBox="0 0 70 70" fill="none" xmlns="http://www.w3.org/2000/svg">
<path d="M3.05908 25.0592H0V43.8654H3.54771L9.87602 48.7289H21.7499C24.1358 48.7289 26.0769 46.7879 26.0769 44.402V43.1218H14.0342V36.5663C14.0342 32.4078 17.4174 29.0247 21.5759 29.0247H24.6328V33.1263H21.5759C19.679 33.1263 18.1357 34.6694 18.1357 36.5663V39.0202H32.9492V29.3418L22.3844 21.0898L3.05908 25.0592Z" fill="#F59300"/>
<path d="M66.9409 25.0592L47.6156 21.0898L37.0508 29.3418V39.0202H51.8644V36.5663C51.8644 34.6694 50.3211 33.1263 48.4243 33.1263H45.3674V29.0247H48.4243C52.5827 29.0247 55.966 32.4078 55.966 36.5663V43.1218H43.9232V44.4019C43.9232 46.7878 45.8644 48.7288 48.2502 48.7288H60.1241L66.4524 43.8653H70V25.0592H66.9409Z" fill="#E2E2E2"/>
</svg>
