<svg width="320" height="433" viewBox="0 0 320 433" fill="none" xmlns="http://www.w3.org/2000/svg">
<g clip-path="url(#clip0)">
<path d="M285 169.709V188.528C285 205.353 271.783 219 255.449 219H63.5514C47.2171 219 34 205.353 34 188.528V169.709C34 90.5074 90.1726 9 159.5 9C228.827 9 285 90.5074 285 169.709Z" fill="#DDDDDD"/>
<path d="M166.224 226.49H153.099C114.402 226.49 83.0781 195.099 83.0781 156.469V107.15C83.0781 68.3848 114.402 37.0613 153.099 37.0613H166.224C204.922 37.0613 236.245 68.4524 236.245 107.082V156.402C236.313 195.099 204.922 226.49 166.224 226.49Z" fill="#F59300"/>
<path d="M285 170C285 90.6549 228.827 9 159.5 9C90.1726 9 34 90.6549 34 170C51.7059 157.015 100.709 124.99 168.353 127.924C225.648 130.421 266.92 156.765 285 170Z" fill="#EEEEEE"/>
<path d="M320 225.962V382.376C320 390.495 313.776 397.057 306.063 397.057H267.027C266.012 395.434 264.186 394.351 262.224 394.351H234.554C232.524 394.351 230.765 395.434 229.75 397.057H95.7292C94.7144 395.434 92.8877 394.351 90.9258 394.351H63.2556C61.226 394.351 59.467 395.434 58.4522 397.057H14.4776C6.76512 397.057 0.541016 390.495 0.541016 382.376V225.962C0.541016 217.844 6.76512 211.281 14.4776 211.281H306.131C313.776 211.349 320 217.911 320 225.962Z" fill="#EEEEEE"/>
<path d="M319.323 416.068L316.685 423.307C314.588 429.057 310.19 432.71 305.387 432.71H14.4778C9.67445 432.71 5.27698 429.057 3.17973 423.307L0.473602 416.068C-0.947117 412.211 1.15013 407.679 4.39749 407.679H58.8584C59.9408 408.964 61.4969 409.776 63.2558 409.776H90.926C92.685 409.776 94.241 408.964 95.3235 407.679H230.156C231.239 408.964 232.795 409.776 234.554 409.776H262.224C263.983 409.776 265.539 408.964 266.622 407.679H315.332C318.579 407.679 320.744 412.211 319.323 416.068Z" fill="#EEEEEE"/>
<path d="M160.338 333.869C178.46 333.869 193.15 319.179 193.15 301.057C193.15 282.936 178.46 268.245 160.338 268.245C142.217 268.245 127.526 282.936 127.526 301.057C127.526 319.179 142.217 333.869 160.338 333.869Z" fill="#F59300"/>
</g>
<defs>
<clipPath id="clip0">
<rect width="320" height="432.71" fill="white"/>
</clipPath>
</defs>
</svg>
