<svg width="320" height="416" viewBox="0 0 320 416" fill="none" xmlns="http://www.w3.org/2000/svg">
<g clip-path="url(#clip0)">
<path d="M274.47 148.973C274.47 150.326 274.47 151.746 274.402 153.167C272.169 190.579 231.983 235.501 160 235.501C82.8755 235.501 40.2539 183.476 44.9896 146.266C45.0573 145.996 45.0573 145.725 45.1249 145.455C50.1989 71.8478 99.5182 0 159.662 0C219.67 0 268.99 71.5772 274.199 145.184C274.267 146.402 274.334 147.619 274.402 148.837C274.47 148.905 274.47 148.973 274.47 148.973Z" fill="#EEEEEE"/>
<path d="M274.47 148.837C274.402 147.619 274.334 146.402 274.267 145.184C274.334 145.522 274.334 145.86 274.402 146.266C274.402 147.146 274.47 147.958 274.47 148.837Z" fill="#EEEEEE"/>
<path d="M268.245 155.738C268.245 180.025 231.983 220.008 160 220.008C87.4082 220.008 51.7549 180.025 51.7549 155.738C51.7549 131.45 100.195 111.763 160 111.763C219.806 111.763 268.245 131.45 268.245 155.738Z" fill="#DDDDDD"/>
<path d="M232.389 122.588V133.48C232.389 173.666 199.848 206.207 159.662 206.207C119.476 206.207 86.9346 173.666 86.9346 133.48V122.791C106.419 115.89 131.992 111.763 160 111.763C187.67 111.763 213.04 115.822 232.389 122.588Z" fill="#DDDDDD"/>
<path d="M232.389 122.588V133.48C232.389 173.666 199.848 206.207 159.662 206.207C119.476 206.207 86.9346 173.666 86.9346 133.48V122.791C106.419 115.89 131.992 111.763 160 111.763C187.67 111.763 213.04 115.822 232.389 122.588Z" fill="#F59300"/>
<path d="M274.605 151.949C274.605 152.423 274.538 152.829 274.402 153.167C274.47 151.746 274.538 150.393 274.47 148.973C274.538 149.987 274.538 150.935 274.605 151.949Z" fill="#EEEEEE"/>
<path d="M320 208.913V365.328C320 373.446 313.776 380.008 306.063 380.008H267.027C266.012 378.385 264.186 377.302 262.224 377.302H234.554C232.524 377.302 230.765 378.385 229.75 380.008H95.7292C94.7144 378.385 92.8877 377.302 90.9258 377.302H63.2556C61.226 377.302 59.467 378.385 58.4522 380.008H14.4776C6.76512 380.008 0.541016 373.446 0.541016 365.328V208.913C0.541016 200.795 6.76512 194.232 14.4776 194.232H306.131C313.776 194.3 320 200.862 320 208.913Z" fill="#EEEEEE"/>
<path d="M319.323 399.019L316.685 406.258C314.587 412.008 310.19 415.662 305.387 415.662H14.4776C9.67418 415.662 5.27671 412.008 3.17946 406.258L0.540985 399.019C-0.879734 395.163 1.21752 390.63 4.46487 390.63H58.8581C59.9406 391.915 61.4966 392.727 63.2556 392.727H90.9258C92.6847 392.727 94.2408 391.915 95.3232 390.63H230.156C231.239 391.915 232.795 392.727 234.554 392.727H262.224C263.983 392.727 265.539 391.915 266.621 390.63H315.332C318.579 390.63 320.744 395.163 319.323 399.019Z" fill="#EEEEEE"/>
<path d="M160.338 316.82C178.46 316.82 193.15 302.13 193.15 284.008C193.15 265.887 178.46 251.197 160.338 251.197C142.217 251.197 127.526 265.887 127.526 284.008C127.526 302.13 142.217 316.82 160.338 316.82Z" fill="#F59300"/>
</g>
<defs>
<clipPath id="clip0">
<rect width="320" height="415.662" fill="white"/>
</clipPath>
</defs>
</svg>
