<svg width="30" height="30" viewBox="0 0 30 30" fill="none" xmlns="http://www.w3.org/2000/svg">
<path d="M17.6367 15C17.6367 16.4561 16.4561 17.6367 15 17.6367C13.5439 17.6367 12.3633 16.4561 12.3633 15C12.3633 13.5439 13.5439 12.3633 15 12.3633C16.4561 12.3633 17.6367 13.5439 17.6367 15Z" fill="#F2F2F2"/>
<path d="M19.4531 7.03125H10.5469C8.60825 7.03125 7.03125 8.60825 7.03125 10.5469V19.4531C7.03125 21.3918 8.60825 22.9688 10.5469 22.9688H19.4531C21.3918 22.9688 22.9688 21.3918 22.9688 19.4531V10.5469C22.9688 8.60825 21.3918 7.03125 19.4531 7.03125ZM15 19.3945C12.5768 19.3945 10.6055 17.4232 10.6055 15C10.6055 12.5768 12.5768 10.6055 15 10.6055C17.4232 10.6055 19.3945 12.5768 19.3945 15C19.3945 17.4232 17.4232 19.3945 15 19.3945ZM20.0391 10.8398C19.5536 10.8398 19.1602 10.4464 19.1602 9.96094C19.1602 9.47548 19.5536 9.08203 20.0391 9.08203C20.5245 9.08203 20.918 9.47548 20.918 9.96094C20.918 10.4464 20.5245 10.8398 20.0391 10.8398Z" fill="#F2F2F2"/>
<path d="M22.0898 0H7.91016C3.54858 0 0 3.54858 0 7.91016V22.0898C0 26.4514 3.54858 30 7.91016 30H22.0898C26.4514 30 30 26.4514 30 22.0898V7.91016C30 3.54858 26.4514 0 22.0898 0ZM24.7266 19.4531C24.7266 22.3608 22.3608 24.7266 19.4531 24.7266H10.5469C7.63916 24.7266 5.27344 22.3608 5.27344 19.4531V10.5469C5.27344 7.63916 7.63916 5.27344 10.5469 5.27344H19.4531C22.3608 5.27344 24.7266 7.63916 24.7266 10.5469V19.4531Z" fill="#F2F2F2"/>
<path fill-rule="evenodd" clip-rule="evenodd" d="M30 3C30 1.34315 28.6569 0 27 0H3C1.34315 0 0 1.34315 0 3V27C0 28.6569 1.34315 30 3 30H27C28.6569 30 30 28.6569 30 27V3ZM26 7C26 5.34315 24.6569 4 23 4H7C5.34315 4 4 5.34315 4 7V23C4 24.6569 5.34315 26 7 26H23C24.6569 26 26 24.6569 26 23V7Z" fill="#F2F2F2"/>
</svg>
