<svg width="1312" height="1014" viewBox="0 0 1312 1014" fill="none" xmlns="http://www.w3.org/2000/svg">
<g opacity="0.05" clip-path="url(#clip0)">
<path d="M29.0825 350.762C31.086 350.225 32.275 348.166 31.7381 346.163C31.2013 344.159 29.1419 342.97 27.1384 343.507C25.1349 344.044 23.9459 346.103 24.4828 348.107C25.0196 350.11 27.079 351.299 29.0825 350.762Z" fill="white"/>
<path d="M30.3372 355.445C25.2425 356.81 20.6303 357.403 16.993 357.154C14.6348 356.996 12.5359 356.505 10.9278 355.735C9.22277 354.922 8.13907 353.826 7.80408 352.576C7.16123 350.176 9.16235 347.123 13.1672 344.408C16.4435 342.182 20.9673 340.219 25.8958 338.898C30.7375 337.601 35.5661 337.035 39.4907 337.316C41.7872 337.475 43.8094 337.94 45.3457 338.644C47.0174 339.419 48.075 340.476 48.4023 341.697C49.0703 344.19 46.8049 347.501 42.4845 350.339C39.4297 352.35 35.1138 354.165 30.3372 355.445ZM26.3677 340.631C21.6922 341.883 17.2493 343.802 14.1829 345.886C10.5012 348.391 9.19906 350.815 9.54566 352.109C9.90581 353.453 12.4315 355.046 17.1171 355.362C20.5563 355.595 24.9729 355.023 29.8725 353.711C34.4685 352.479 38.5988 350.753 41.5011 348.836C45.5628 346.16 47.0334 343.497 46.6751 342.16C46.4912 341.474 45.754 340.804 44.5963 340.27C43.2611 339.651 41.4486 339.246 39.3719 339.098C35.6401 338.843 31.0215 339.384 26.3677 340.631Z" fill="white"/>
<path d="M24.724 367.421C23.9869 367.618 23.2939 367.633 22.6595 367.463C20.2641 366.819 18.6158 363.558 18.2607 358.735C17.9673 354.778 18.531 349.887 19.8509 344.956C21.1487 340.116 23.0662 335.652 25.2671 332.39C26.5525 330.481 27.9641 328.957 29.3451 327.983C30.8498 326.921 32.2951 326.534 33.5128 326.858C36.0066 327.522 37.7444 331.146 38.0416 336.302C38.2556 339.963 37.6713 344.604 36.3961 349.383C35.0335 354.473 33.2402 358.764 31.2096 361.795C29.8925 363.759 28.4163 365.331 26.9506 366.336C26.1864 366.866 25.4321 367.231 24.724 367.421ZM20.7114 345.19L21.5791 345.422C20.3293 350.095 19.7659 354.9 20.046 358.605C20.3766 363.048 21.8315 365.384 23.1167 365.729C23.4339 365.814 23.8184 365.804 24.2592 365.686C25.6973 365.301 27.7152 363.784 29.7193 360.8C31.6402 357.938 33.3494 353.824 34.6626 348.926C35.8937 344.329 36.4541 339.888 36.2524 336.418C35.9656 331.561 34.3939 328.961 33.0503 328.601C32.3667 328.42 31.4172 328.721 30.3753 329.457C29.17 330.307 27.9172 331.672 26.754 333.401C24.6648 336.502 22.8275 340.774 21.5811 345.43L20.7114 345.19Z" fill="white"/>
<path d="M41.1918 363.031C39.2262 363.558 36.4155 363.041 33.2137 361.498C29.6387 359.776 25.6859 356.846 22.0701 353.238C18.519 349.697 15.617 345.804 13.8861 342.264C12.8749 340.195 12.2591 338.215 12.1019 336.53C11.9349 334.693 12.3153 333.251 13.213 332.352C15.0315 330.525 19.04 330.829 23.6576 333.147C26.9318 334.787 30.6633 337.613 34.1628 341.106C37.8949 344.83 40.7209 348.527 42.3258 351.799C43.3669 353.921 43.9968 355.983 44.1392 357.757C44.2889 359.646 43.8801 361.126 42.9646 362.045C42.5078 362.508 41.9072 362.84 41.1918 363.031ZM23.3408 351.968C26.7666 355.387 30.6533 358.273 33.9959 359.879C38.0063 361.809 40.756 361.723 41.7019 360.773C42.6852 359.789 42.8002 356.807 40.7258 352.592C39.2002 349.5 36.4948 345.965 32.9012 342.381C29.5291 339.017 25.9611 336.31 22.8571 334.756C18.5086 332.575 15.4735 332.637 14.4902 333.621C13.9886 334.119 13.7782 335.097 13.8939 336.367C14.0311 337.833 14.5836 339.606 15.5024 341.474C17.1469 344.837 19.9262 348.561 23.3408 351.968Z" fill="white"/>
</g>
<g opacity="0.05" clip-path="url(#clip1)">
<path d="M40.3076 983.637C42.7969 982.97 44.2742 980.411 43.6071 977.922C42.9401 975.433 40.3814 973.955 37.8921 974.622C35.4028 975.289 33.9255 977.848 34.5925 980.337C35.2595 982.827 37.8182 984.304 40.3076 983.637Z" fill="white"/>
<path d="M41.8656 989.455C35.5356 991.151 29.805 991.888 25.2857 991.579C22.3557 991.382 19.7479 990.772 17.7498 989.816C15.6313 988.805 14.2849 987.443 13.8686 985.89C13.0699 982.909 15.5563 979.115 20.5322 975.742C24.603 972.977 30.2238 970.537 36.3473 968.896C42.363 967.284 48.3625 966.581 53.2387 966.93C56.0921 967.128 58.6047 967.706 60.5134 968.58C62.5905 969.544 63.9046 970.857 64.3112 972.374C65.1412 975.472 62.3265 979.584 56.9585 983.111C53.1629 985.61 47.8006 987.865 41.8656 989.455ZM36.9336 971.049C31.1244 972.605 25.6041 974.989 21.7943 977.579C17.2197 980.69 15.6019 983.703 16.0325 985.31C16.48 986.98 19.6182 988.959 25.4399 989.353C29.7131 989.642 35.2006 988.931 41.2882 987.3C46.9987 985.77 52.1306 983.625 55.7366 981.244C60.7833 977.919 62.6104 974.61 62.1653 972.949C61.9367 972.096 61.0208 971.264 59.5823 970.6C57.9234 969.832 55.6714 969.329 53.0911 969.144C48.4544 968.828 42.7159 969.499 36.9336 971.049Z" fill="white"/>
<path d="M34.8925 1004.33C33.9767 1004.58 33.1157 1004.6 32.3274 1004.39C29.3512 1003.59 27.3033 999.536 26.862 993.543C26.4975 988.627 27.1979 982.55 28.8378 976.423C30.4503 970.41 32.8328 964.863 35.5673 960.81C37.1644 958.439 38.9184 956.544 40.6342 955.334C42.5038 954.015 44.2995 953.534 45.8125 953.937C48.911 954.762 51.0701 959.264 51.4395 965.671C51.7054 970.219 50.9794 975.985 49.395 981.924C47.702 988.248 45.4738 993.58 42.9508 997.345C41.3143 999.785 39.4802 1001.74 37.659 1002.99C36.7096 1003.65 35.7724 1004.1 34.8925 1004.33ZM29.907 976.714L30.9851 977.003C29.4323 982.808 28.7323 988.779 29.0803 993.382C29.4911 998.902 31.2986 1001.8 32.8955 1002.23C33.2896 1002.34 33.7674 1002.33 34.3151 1002.18C36.1019 1001.7 38.6091 999.817 41.0992 996.109C43.4858 992.553 45.6095 987.442 47.2411 981.356C48.7707 975.644 49.4671 970.126 49.2164 965.814C48.8601 959.78 46.9072 956.55 45.2379 956.102C44.3886 955.877 43.2088 956.251 41.9142 957.166C40.4167 958.221 38.8601 959.918 37.4149 962.067C34.819 965.919 32.5362 971.227 30.9875 977.012L29.907 976.714Z" fill="white"/>
<path d="M55.3529 998.881C52.9107 999.536 49.4185 998.893 45.4403 996.976C40.9985 994.837 36.0872 991.197 31.5946 986.713C27.1823 982.314 23.5767 977.477 21.426 973.078C20.1697 970.508 19.4045 968.047 19.2092 965.954C19.0017 963.671 19.4744 961.879 20.5898 960.763C22.8492 958.492 27.8297 958.871 33.567 961.751C37.6351 963.788 42.2714 967.3 46.6195 971.639C51.2566 976.267 54.7679 980.86 56.7619 984.925C58.0554 987.562 58.8381 990.124 59.015 992.328C59.201 994.675 58.6931 996.514 57.5556 997.656C56.988 998.232 56.2418 998.643 55.3529 998.881ZM33.1734 985.135C37.4298 989.384 42.259 992.969 46.4121 994.964C51.395 997.363 54.8115 997.256 55.9867 996.075C57.2085 994.852 57.3514 991.148 54.774 985.91C52.8784 982.068 49.5171 977.676 45.052 973.224C40.8622 969.044 36.429 965.68 32.5724 963.749C27.1694 961.04 23.3984 961.117 22.1766 962.339C21.5534 962.958 21.292 964.174 21.4358 965.752C21.6063 967.573 22.2927 969.776 23.4343 972.097C25.4776 976.275 28.9309 980.902 33.1734 985.135Z" fill="white"/>
</g>
<g opacity="0.1" clip-path="url(#clip2)">
<path d="M1272.1 515.635C1262.86 520.972 1265.72 524.601 1265.72 524.601L1268.1 528.701L1276.92 523.609L1277.64 524.841L1265.31 531.957C1265.31 531.957 1259.02 534.708 1264.34 543.929C1269.66 553.15 1274.64 549.843 1274.64 549.843L1277.72 548.064L1275.25 543.785C1275.25 543.785 1272.13 538.777 1277.38 535.748L1286.13 530.697C1286.13 530.697 1291.09 527.938 1288.33 523.163L1283.77 515.267C1283.77 515.267 1281.76 510.058 1272.1 515.635ZM1268.83 521.204C1269.71 520.697 1270.82 520.989 1271.32 521.857C1271.83 522.724 1271.52 523.835 1270.64 524.342C1269.77 524.848 1268.65 524.557 1268.15 523.689C1267.65 522.821 1267.95 521.711 1268.83 521.204Z" fill="white"/>
<path d="M1293.04 551.294C1302.28 545.958 1299.42 542.328 1299.42 542.328L1297.04 538.228L1288.22 543.321L1287.5 542.088L1299.83 534.973C1299.83 534.973 1306.12 532.221 1300.8 523C1295.48 513.779 1290.5 517.087 1290.5 517.087L1287.42 518.866L1289.89 523.144C1289.89 523.144 1293.01 528.153 1287.76 531.182L1279.01 536.232C1279.01 536.232 1274.05 538.992 1276.81 543.767L1281.37 551.662C1281.37 551.662 1283.38 556.871 1293.04 551.294ZM1296.31 545.726C1295.43 546.232 1294.32 545.94 1293.82 545.073C1293.31 544.205 1293.62 543.094 1294.5 542.588C1295.37 542.081 1296.49 542.373 1296.99 543.24C1297.49 544.108 1297.19 545.219 1296.31 545.726Z" fill="#888888"/>
</g>
<g opacity="0.1" clip-path="url(#clip3)">
<path d="M813.101 10.6353C803.858 15.9717 806.724 19.6016 806.724 19.6016L809.104 23.7014L817.925 18.6089L818.637 19.8416L806.313 26.9568C806.313 26.9568 800.015 29.7084 805.339 38.9294C810.663 48.1505 815.636 44.8429 815.636 44.8429L818.717 43.0641L816.247 38.7852C816.247 38.7852 813.134 33.777 818.38 30.7482L827.128 25.6974C827.128 25.6974 832.089 22.9382 829.332 18.163L824.773 10.2674C824.773 10.2674 822.761 5.05843 813.101 10.6353ZM809.832 16.2042C810.709 15.6975 811.824 15.9893 812.325 16.857C812.825 17.7246 812.521 18.8354 811.643 19.3421C810.766 19.8487 809.652 19.5569 809.151 18.6893C808.65 17.8216 808.954 16.7109 809.832 16.2042Z" fill="white"/>
<path d="M834.038 46.2949C843.281 40.9585 840.416 37.3286 840.416 37.3286L838.035 33.2289L829.215 38.3213L828.503 37.0886L840.827 29.9734C840.827 29.9734 847.125 27.2218 841.801 18.0008C836.477 8.77977 831.504 12.0873 831.504 12.0873L828.423 13.8661L830.893 18.145C830.893 18.145 834.006 23.1532 828.76 26.182L820.012 31.2329C820.012 31.2329 815.051 33.992 817.808 38.7672L822.367 46.6628C822.367 46.6628 824.379 51.8718 834.038 46.2949ZM837.308 40.726C836.43 41.2327 835.316 40.9409 834.815 40.0733C834.314 39.2056 834.619 38.0948 835.496 37.5882C836.374 37.0815 837.488 37.3733 837.989 38.2409C838.49 39.1086 838.186 40.2194 837.308 40.726Z" fill="#888888"/>
</g>
<g opacity="0.05" clip-path="url(#clip4)">
<path d="M1067.98 892.657L1073.98 900.329L1059.37 925.644L1049.66 924.278L1044.3 904.531L1032.78 906.122L1030.54 902.71L1039.69 886.86L1043.72 887.168L1048.08 897.991L1067.98 892.657ZM1040.98 891.913L1035.43 901.531L1042.99 899.397L1040.98 891.913ZM1050.58 903.78L1055.05 914.942L1062.49 902.041L1050.58 903.78Z" fill="white"/>
</g>
<g opacity="0.05" clip-path="url(#clip5)">
<path d="M1181.98 141.657L1187.98 149.329L1173.37 174.644L1163.66 173.278L1158.3 153.531L1146.78 155.122L1144.54 151.71L1153.69 135.86L1157.72 136.168L1162.08 146.991L1181.98 141.657ZM1154.98 140.913L1149.43 150.531L1156.99 148.397L1154.98 140.913ZM1164.58 152.78L1169.05 163.942L1176.49 151.041L1164.58 152.78Z" fill="white"/>
</g>
<g opacity="0.04">
<path d="M187.478 685.965C186.675 691.073 185.112 692.565 182.345 695.996C179.577 698.903 175.596 703.757 169.957 703.487C164.849 702.684 163.357 701.121 159.926 698.353C157.019 695.586 152.165 691.605 152.435 685.965C153.238 680.858 154.801 679.365 157.569 675.934C160.336 673.027 164.317 668.173 169.957 668.444C175.064 669.247 176.557 670.81 179.988 673.577C182.895 676.345 187.749 680.326 187.478 685.965Z" fill="white"/>
<path d="M169.965 696.17C169.694 696.17 169.424 696.101 169.188 695.961L166.726 694.503C166.36 694.293 166.534 694.224 166.656 694.18C167.145 694.005 167.25 693.97 167.774 693.674C167.826 693.639 167.905 693.656 167.957 693.691L169.852 694.817C169.921 694.852 170.017 694.852 170.079 694.817L177.456 690.557C177.525 690.522 177.569 690.435 177.569 690.356V681.844C177.569 681.757 177.525 681.687 177.456 681.643L170.079 677.392C170.009 677.348 169.921 677.348 169.852 677.392L162.483 681.643C162.413 681.687 162.37 681.766 162.37 681.844V690.356C162.37 690.435 162.413 690.513 162.483 690.557L164.5 691.727C165.6 692.277 166.263 691.631 166.263 690.985V682.577C166.263 682.455 166.36 682.368 166.482 682.368H167.416C167.529 682.368 167.625 682.464 167.625 682.577V690.976C167.625 692.443 166.831 693.281 165.443 693.281C165.015 693.281 164.683 693.281 163.74 692.818L161.802 691.701C161.322 691.421 161.025 690.906 161.025 690.356V681.844C161.025 681.294 161.322 680.779 161.802 680.5L169.179 676.239C169.642 675.977 170.271 675.977 170.733 676.239L178.11 680.5C178.59 680.779 178.887 681.294 178.887 681.844V690.356C178.887 690.906 178.59 691.421 178.11 691.701L170.733 695.961C170.506 696.092 170.236 696.17 169.965 696.17Z" fill="#666666"/>
<path d="M172.244 690.304C169.014 690.304 168.341 688.82 168.341 687.58C168.341 687.458 168.437 687.37 168.551 687.37H169.502C169.607 687.37 169.694 687.449 169.712 687.554C169.852 688.523 170.288 689.012 172.235 689.012C173.789 689.012 174.452 688.662 174.452 687.833C174.452 687.362 174.269 687.004 171.851 686.768C169.834 686.567 168.586 686.122 168.586 684.507C168.586 683.023 169.843 682.132 171.947 682.132C174.313 682.132 175.483 682.953 175.631 684.708C175.64 684.769 175.614 684.83 175.579 684.874C175.535 684.917 175.483 684.943 175.421 684.943H174.461C174.365 684.943 174.278 684.874 174.252 684.778C174.025 683.756 173.466 683.433 171.947 683.433C170.253 683.433 170.052 684.027 170.052 684.463C170.052 684.996 170.288 685.153 172.575 685.459C174.845 685.755 175.919 686.183 175.919 687.772C175.919 689.378 174.575 690.304 172.244 690.304Z" fill="#666666"/>
</g>
<g opacity="0.04">
<path d="M570.689 106.959H576.481L562 132L547.519 106.959H553.239H558.597L562 112.766L565.331 106.959H570.689Z" fill="white"/>
<path d="M547.519 106.959L562 132L576.481 106.959H570.689L562 121.984L553.239 106.959H547.519Z" fill="white"/>
<path d="M553.239 106.959L562 122.056L570.689 106.959H565.331L562 112.766L558.597 106.959H553.239Z" fill="#888888"/>
</g>
<g opacity="0.04">
<path d="M312.689 865.959H318.481L304 891L289.519 865.959H295.239H300.597L304 871.766L307.331 865.959H312.689Z" fill="white"/>
<path d="M289.519 865.959L304 891L318.481 865.959H312.689L304 880.984L295.239 865.959H289.519Z" fill="white"/>
<path d="M295.239 865.959L304 881.056L312.689 865.959H307.331L304 871.766L300.597 865.959H295.239Z" fill="#888888"/>
</g>
<defs>
<clipPath id="clip0">
<rect width="44.8882" height="44.8882" fill="white" transform="translate(0.666016 331.283) rotate(-15)"/>
</clipPath>
<clipPath id="clip1">
<rect width="55.7728" height="55.7728" fill="white" transform="translate(5 959.435) rotate(-15)"/>
</clipPath>
<clipPath id="clip2">
<rect width="42.1437" height="41.5052" fill="white" transform="translate(1254 526.072) rotate(-30)"/>
</clipPath>
<clipPath id="clip3">
<rect width="42.1437" height="41.5052" fill="white" transform="translate(795 21.0718) rotate(-30)"/>
</clipPath>
<clipPath id="clip4">
<rect width="37.9087" height="37.9087" fill="white" transform="translate(1043.95 878) rotate(30)"/>
</clipPath>
<clipPath id="clip5">
<rect width="37.9087" height="37.9087" fill="white" transform="translate(1157.95 127) rotate(30)"/>
</clipPath>
</defs>
</svg>
