<svg width="16" height="16" viewBox="0 0 16 16" fill="none" xmlns="http://www.w3.org/2000/svg">
<g clip-path="url(#clip0)">
<path d="M12.7369 2.73943C11.7658 1.06368 10.0411 0.0399023 8.12313 0.000777344C8.04125 -0.000910156 7.95885 -0.000910156 7.87694 0.000777344C5.95901 0.0399023 4.23425 1.06368 3.26319 2.73943C2.27063 4.45231 2.24347 6.50981 3.19054 8.24328L7.15813 15.5054C7.15991 15.5086 7.16169 15.5118 7.16354 15.515C7.3381 15.8184 7.65082 15.9995 8.0001 15.9995C8.34935 15.9995 8.66207 15.8184 8.8366 15.515C8.83844 15.5118 8.84022 15.5086 8.842 15.5054L12.8096 8.24328C13.7566 6.50981 13.7294 4.45231 12.7369 2.73943V2.73943ZM8.00004 7.24953C6.75938 7.24953 5.75004 6.24018 5.75004 4.99953C5.75004 3.75887 6.75938 2.74953 8.00004 2.74953C9.24069 2.74953 10.25 3.75887 10.25 4.99953C10.25 6.24018 9.24072 7.24953 8.00004 7.24953Z" fill="#AAAAAA"/>
</g>
<defs>
<clipPath id="clip0">
<rect width="16" height="16" fill="white"/>
</clipPath>
</defs>
</svg>
