<svg width="398" height="348" viewBox="0 0 398 348" fill="none" xmlns="http://www.w3.org/2000/svg">
<path d="M218.407 2.53855C236.415 0.855235 254.574 1.81533 272.304 5.38835L302.776 11.5288C336.555 18.3357 365.668 39.5747 382.462 69.663C392.638 87.8939 397.792 108.499 397.398 129.374L396.705 166.049C396.24 190.646 390.669 214.879 380.344 237.209L366.389 267.391C359.639 281.991 348.417 294.065 334.349 301.863C317.924 310.968 298.703 313.65 280.413 309.387L278.529 308.948C257.441 304.034 235.263 307.79 216.968 319.373L213.875 321.332C187.689 337.912 154.79 339.771 126.903 326.245L75.6937 301.407C61.1334 294.345 51.8878 279.342 51.8878 263.159C51.8878 250.142 45.7616 237.695 35.351 229.881L30.9119 226.549C14.1804 213.991 11.5566 189.901 25.1924 174.036C33.1874 164.733 35.9241 152.013 32.4623 140.246L30.7049 134.272C24.5581 113.378 33.3675 90.9761 52.0999 79.8655L56.9214 77.0058C67.5012 70.7306 75.6641 61.0808 80.0982 49.607L80.6175 48.2632C88.6861 27.3849 107.874 12.8702 130.16 10.7871L218.407 2.53855Z" fill="#161616"/>
<g filter="url(#filter0_d)">
<rect x="224.338" y="220.019" width="9.7131" height="10.2243" rx="2" transform="rotate(-180 224.338 220.019)" fill="#EEEEEE"/>
<rect x="222.518" y="196.241" width="6.23277" height="6.23277" rx="3.11639" transform="rotate(-180 222.518 196.241)" fill="#999999"/>
<rect x="222.518" y="174.426" width="6.23277" height="6.23277" rx="3.11639" transform="rotate(-180 222.518 174.426)" fill="#999999"/>
</g>
<g filter="url(#filter1_d)">
<rect x="224.339" y="144.359" width="10.2243" height="9.71309" rx="2" transform="rotate(90 224.339 144.359)" fill="#EEEEEE"/>
<rect x="200.754" y="146.404" width="6.23277" height="6.23277" rx="3.11639" transform="rotate(90 200.754 146.404)" fill="#999999"/>
<rect x="178.938" y="146.404" width="6.23277" height="6.23277" rx="3.11639" transform="rotate(90 178.938 146.404)" fill="#999999"/>
</g>
<g filter="url(#filter2_d)">
<rect x="236.137" y="217.971" width="6.23277" height="6.23277" rx="3.11639" transform="rotate(-90 236.137 217.971)" fill="#999999"/>
<rect x="257.952" y="217.971" width="6.23277" height="6.23277" rx="3.11639" transform="rotate(-90 257.952 217.971)" fill="#999999"/>
<rect x="279.768" y="217.971" width="6.23277" height="6.23277" rx="3.11639" transform="rotate(-90 279.768 217.971)" fill="#999999"/>
</g>
<g filter="url(#filter3_d)">
<path d="M149.014 156.326C150.047 156.709 150.589 157.861 150.127 158.861C148.562 162.251 146.506 164.212 142.877 166.259C138.635 168.652 133.679 169.452 128.9 168.516C124.121 167.58 119.833 164.969 116.808 161.153C113.782 157.338 112.217 152.567 112.396 147.701C112.574 142.834 114.483 138.191 117.779 134.607C121.075 131.022 125.543 128.732 130.377 128.148C135.212 127.564 140.096 128.724 144.152 131.42C148.073 134.027 149.458 135.719 150.749 140.062C150.825 140.317 150.685 140.585 150.433 140.671L133.032 146.629C131.252 147.239 131.222 149.745 132.986 150.397L149.014 156.326Z" fill="#FFBA08"/>
</g>
<defs>
<filter id="filter0_d" x="210.625" y="168.193" width="17.7131" height="59.8249" filterUnits="userSpaceOnUse" color-interpolation-filters="sRGB">
<feFlood flood-opacity="0" result="BackgroundImageFix"/>
<feColorMatrix in="SourceAlpha" type="matrix" values="0 0 0 0 0 0 0 0 0 0 0 0 0 0 0 0 0 0 127 0"/>
<feOffset dy="4"/>
<feGaussianBlur stdDeviation="2"/>
<feColorMatrix type="matrix" values="0 0 0 0 0 0 0 0 0 0 0 0 0 0 0 0 0 0 0.25 0"/>
<feBlend mode="normal" in2="BackgroundImageFix" result="effect1_dropShadow"/>
<feBlend mode="normal" in="SourceGraphic" in2="effect1_dropShadow" result="shape"/>
</filter>
<filter id="filter1_d" x="168.706" y="144.359" width="59.633" height="18.2243" filterUnits="userSpaceOnUse" color-interpolation-filters="sRGB">
<feFlood flood-opacity="0" result="BackgroundImageFix"/>
<feColorMatrix in="SourceAlpha" type="matrix" values="0 0 0 0 0 0 0 0 0 0 0 0 0 0 0 0 0 0 127 0"/>
<feOffset dy="4"/>
<feGaussianBlur stdDeviation="2"/>
<feColorMatrix type="matrix" values="0 0 0 0 0 0 0 0 0 0 0 0 0 0 0 0 0 0 0.25 0"/>
<feBlend mode="normal" in2="BackgroundImageFix" result="effect1_dropShadow"/>
<feBlend mode="normal" in="SourceGraphic" in2="effect1_dropShadow" result="shape"/>
</filter>
<filter id="filter2_d" x="232.137" y="211.738" width="57.8636" height="14.2328" filterUnits="userSpaceOnUse" color-interpolation-filters="sRGB">
<feFlood flood-opacity="0" result="BackgroundImageFix"/>
<feColorMatrix in="SourceAlpha" type="matrix" values="0 0 0 0 0 0 0 0 0 0 0 0 0 0 0 0 0 0 127 0"/>
<feOffset dy="4"/>
<feGaussianBlur stdDeviation="2"/>
<feColorMatrix type="matrix" values="0 0 0 0 0 0 0 0 0 0 0 0 0 0 0 0 0 0 0.25 0"/>
<feBlend mode="normal" in2="BackgroundImageFix" result="effect1_dropShadow"/>
<feBlend mode="normal" in="SourceGraphic" in2="effect1_dropShadow" result="shape"/>
</filter>
<filter id="filter3_d" x="108.382" y="128" width="46.388" height="52.8973" filterUnits="userSpaceOnUse" color-interpolation-filters="sRGB">
<feFlood flood-opacity="0" result="BackgroundImageFix"/>
<feColorMatrix in="SourceAlpha" type="matrix" values="0 0 0 0 0 0 0 0 0 0 0 0 0 0 0 0 0 0 127 0"/>
<feOffset dy="8"/>
<feGaussianBlur stdDeviation="2"/>
<feColorMatrix type="matrix" values="0 0 0 0 0 0 0 0 0 0 0 0 0 0 0 0 0 0 0.25 0"/>
<feBlend mode="normal" in2="BackgroundImageFix" result="effect1_dropShadow"/>
<feBlend mode="normal" in="SourceGraphic" in2="effect1_dropShadow" result="shape"/>
</filter>
</defs>
</svg>
