<svg width="70" height="70" viewBox="0 0 70 70" fill="none" xmlns="http://www.w3.org/2000/svg">
<g clip-path="url(#clip0)">
<path d="M26.5264 63.5532L28.3023 69.9998H42.1753L43.8247 63.5532H26.5264Z" fill="#E2E2E2"/>
<path d="M48.1701 46.653L36.0785 23.8206V38.8357C38.2717 39.3789 39.7149 41.4732 39.4415 43.7163C39.1675 45.9593 37.2632 47.6453 35.004 47.6453C32.7442 47.6453 30.84 45.9593 30.5666 43.7163C30.2932 41.4732 31.7364 39.3789 33.9296 38.8357V23.8206L21.8428 46.6458L25.9313 61.4043H44.3766L48.1701 46.653Z" fill="#F59300"/>
<path d="M32.6826 43.1742C32.6826 44.4567 33.7217 45.4958 35.0042 45.4958C36.2861 45.4958 37.3251 44.4567 37.3251 43.1742C37.3251 41.8923 36.2861 40.8533 35.0042 40.8533C33.7223 40.8545 32.6838 41.8929 32.6826 43.1742Z" fill="#EEEEEE"/>
<path d="M6.64339 35.6178H15.8415C16.1179 35.6292 16.3877 35.526 16.5861 35.3336C16.7846 35.1405 16.8955 34.8743 16.8925 34.5973V25.3986C16.8925 24.8056 16.4351 24.2594 15.8415 24.2594H13.063C15.1118 16.3858 21.2233 10.2144 29.0759 8.08827C29.8889 10.6796 32.2914 12.4424 35.0075 12.4406C37.7236 12.4388 40.1231 10.6724 40.9325 8.07988C48.7893 10.2054 54.9026 16.3816 56.9477 24.2594H54.1675C53.5739 24.2594 53.1165 24.8056 53.1165 25.3986V34.5973C53.1129 34.8743 53.2238 35.1405 53.4222 35.3336C53.6213 35.526 53.8905 35.6292 54.1675 35.6178H63.3656C63.9586 35.6178 64.4748 35.1903 64.4748 34.5973V25.3986C64.4634 24.7858 63.9778 24.287 63.3656 24.2594H59.1584C57.0395 15.2994 50.133 8.24896 41.2185 5.94479C41.071 2.62134 38.3351 0.00239995 35.0081 1.64775e-06C31.6816 -0.00239665 28.9416 2.61355 28.7899 5.93699C19.876 8.24776 12.9719 15.2994 10.8482 24.2594H6.64279C6.03063 24.2876 5.54497 24.7858 5.53418 25.3986V34.5973C5.53418 35.1903 6.04981 35.6178 6.64339 35.6178Z" fill="#E2E2E2"/>
</g>
<defs>
<clipPath id="clip0">
<rect width="70" height="70" fill="white"/>
</clipPath>
</defs>
</svg>
