<svg width="277" height="277" viewBox="0 0 277 277" fill="none" xmlns="http://www.w3.org/2000/svg">
<rect width="277" height="277" rx="8" fill="#444444"/>
<g clip-path="url(#clip0)">
<path d="M136.974 136.365C146.503 136.365 154.755 132.947 161.498 126.204C168.24 119.462 171.658 111.212 171.658 101.682C171.658 92.1542 168.24 83.9035 161.496 77.159C154.753 70.4178 146.502 67 136.974 67C127.443 67 119.194 70.4178 112.451 77.1601C105.709 83.9024 102.29 92.1531 102.29 101.682C102.29 111.212 105.709 119.463 112.452 126.205C119.196 132.946 127.447 136.365 136.974 136.365V136.365Z" fill="#AAAAAA"/>
<path d="M197.661 177.73C197.467 174.924 197.073 171.864 196.495 168.631C195.91 165.375 195.157 162.297 194.257 159.483C193.326 156.575 192.06 153.703 190.496 150.951C188.872 148.095 186.965 145.607 184.825 143.561C182.587 141.419 179.847 139.698 176.678 138.442C173.521 137.193 170.022 136.56 166.279 136.56C164.809 136.56 163.387 137.163 160.642 138.951C158.952 140.053 156.976 141.327 154.77 142.737C152.883 143.939 150.328 145.065 147.171 146.084C144.092 147.081 140.965 147.586 137.879 147.586C134.793 147.586 131.667 147.081 128.585 146.084C125.432 145.066 122.876 143.94 120.992 142.738C118.807 141.341 116.829 140.067 115.114 138.95C112.372 137.162 110.949 136.559 109.479 136.559C105.735 136.559 102.237 137.193 99.0809 138.443C95.9147 139.697 93.1736 141.418 90.9335 143.562C88.7944 145.61 86.8861 148.096 85.2645 150.951C83.7012 153.703 82.4355 156.574 81.5039 159.484C80.6041 162.298 79.8516 165.375 79.2671 168.631C78.6881 171.859 78.2948 174.921 78.1003 177.733C77.9092 180.489 77.8125 183.349 77.8125 186.237C77.8125 193.754 80.202 199.839 84.9141 204.327C89.5679 208.755 95.7257 211.002 103.214 211.002H172.551C180.039 211.002 186.195 208.757 190.85 204.327C195.563 199.842 197.952 193.756 197.952 186.236C197.951 183.334 197.854 180.472 197.661 177.73V177.73Z" fill="#AAAAAA"/>
</g>
<defs>
<clipPath id="clip0">
<rect width="144" height="144" fill="white" transform="translate(66 67)"/>
</clipPath>
</defs>
</svg>
