<svg width="579" height="471" viewBox="0 0 579 471" fill="none" xmlns="http://www.w3.org/2000/svg">
<g clip-path="url(#clip0)">
<path d="M578.574 162.805V455.193C578.574 463.93 571.479 470.999 562.709 470.999H15.8651C7.09514 470.999 0 463.93 0 455.193V162.805C0 154.068 7.09514 146.999 15.8651 146.999H562.709C571.479 146.999 578.574 154.068 578.574 162.805Z" fill="#B3F0F2"/>
<path d="M166.051 230.76H139.162V356.932H166.051V230.76Z" fill="#99AB29"/>
<path d="M225.37 230.76H166.051V356.932H225.37V230.76Z" fill="#8E9922"/>
<path d="M211.697 303.568H209.291C207.221 303.568 205.546 301.9 205.546 299.837V297.44C205.546 295.378 207.221 293.709 209.291 293.709H211.697C213.768 293.709 215.443 295.378 215.443 297.44V299.837C215.443 301.9 213.768 303.568 211.697 303.568Z" fill="#82871D"/>
<path d="M186.94 303.568H184.535C182.464 303.568 180.789 301.9 180.789 299.837V297.44C180.789 295.378 182.464 293.709 184.535 293.709H186.94C189.011 293.709 190.686 295.378 190.686 297.44V299.837C190.686 301.9 189.011 303.568 186.94 303.568Z" fill="#82871D"/>
<path d="M211.697 328.081H209.291C207.221 328.081 205.546 326.413 205.546 324.35V321.953C205.546 319.89 207.221 318.222 209.291 318.222H211.697C213.768 318.222 215.443 319.89 215.443 321.953V324.35C215.443 326.413 213.768 328.081 211.697 328.081Z" fill="#82871D"/>
<path d="M186.94 328.081H184.535C182.464 328.081 180.789 326.413 180.789 324.35V321.953C180.789 319.89 182.464 318.222 184.535 318.222H186.94C189.011 318.222 190.686 319.89 190.686 321.953V324.35C190.686 326.413 189.011 328.081 186.94 328.081Z" fill="#82871D"/>
<path d="M211.697 277.661H209.291C207.221 277.661 205.546 275.992 205.546 273.929V271.533C205.546 269.47 207.221 267.801 209.291 267.801H211.697C213.768 267.801 215.443 269.47 215.443 271.533V273.929C215.443 275.992 213.768 277.661 211.697 277.661Z" fill="#82871D"/>
<path d="M186.94 277.661H184.535C182.464 277.661 180.789 275.992 180.789 273.929V271.533C180.789 269.47 182.464 267.801 184.535 267.801H186.94C189.011 267.801 190.686 269.47 190.686 271.533V273.929C190.686 275.992 189.011 277.661 186.94 277.661Z" fill="#82871D"/>
<path d="M211.697 251.753H209.291C207.221 251.753 205.546 250.085 205.546 248.022V245.595C205.546 243.532 207.221 241.863 209.291 241.863H211.697C213.768 241.863 215.443 243.532 215.443 245.595V247.991C215.443 250.085 213.768 251.753 211.697 251.753Z" fill="#82871D"/>
<path d="M186.94 251.753H184.535C182.464 251.753 180.789 250.085 180.789 248.022V245.595C180.789 243.532 182.464 241.863 184.535 241.863H186.94C189.011 241.863 190.686 243.532 190.686 245.595V247.991C190.686 250.085 189.011 251.753 186.94 251.753Z" fill="#82871D"/>
<path d="M149.607 317.675H156.52C157.89 317.675 158.986 318.767 158.986 320.133V338.638H147.141V320.133C147.141 318.798 148.237 317.675 149.607 317.675Z" fill="#82871D"/>
<path d="M150.612 265.86H155.515C156.763 265.86 157.768 266.861 157.768 268.105V274.961C157.768 277.418 155.759 279.421 153.292 279.421H152.866C150.399 279.421 148.389 277.418 148.389 274.961V268.105C148.359 266.861 149.394 265.86 150.612 265.86Z" fill="#82871D"/>
<path d="M147.658 277.479H158.468C158.468 278.541 157.585 279.421 156.52 279.421H149.607C148.541 279.421 147.658 278.571 147.658 277.479Z" fill="#A07657"/>
<path d="M150.612 291.95H155.515C156.763 291.95 157.768 292.951 157.768 294.195V301.051C157.768 303.508 155.759 305.51 153.292 305.51H152.866C150.399 305.51 148.389 303.508 148.389 301.051V294.195C148.359 292.951 149.394 291.95 150.612 291.95Z" fill="#82871D"/>
<path d="M147.658 303.569H158.468C158.468 304.631 157.585 305.51 156.52 305.51H149.607C148.541 305.51 147.658 304.661 147.658 303.569Z" fill="#A07657"/>
<path d="M150.612 240.104H155.515C156.763 240.104 157.768 241.105 157.768 242.348V249.205C157.768 251.662 155.759 253.664 153.292 253.664H152.866C150.399 253.664 148.389 251.662 148.389 249.205V242.348C148.359 241.105 149.394 240.104 150.612 240.104Z" fill="#82871D"/>
<path d="M147.658 251.753H158.468C158.468 252.815 157.585 253.695 156.52 253.695H149.607C148.541 253.695 147.658 252.815 147.658 251.753Z" fill="#A07657"/>
<path d="M226.618 230.76H137.914C136.939 230.76 136.147 229.971 136.147 229V227.908C136.147 226.937 136.939 226.148 137.914 226.148H226.618C227.593 226.148 228.384 226.937 228.384 227.908V229C228.384 229.971 227.593 230.76 226.618 230.76Z" fill="#A07657"/>
<path d="M5.66393 249.023H0V356.932H5.66393V249.023Z" fill="#E85B5B"/>
<path d="M64.9831 249.023H5.66406V356.932H64.9831V249.023Z" fill="#D85252"/>
<path d="M51.3094 321.832H48.9037C46.833 321.832 45.1582 320.163 45.1582 318.1V315.704C45.1582 313.641 46.833 311.972 48.9037 311.972H51.3094C53.38 311.972 55.0549 313.641 55.0549 315.704V318.1C55.0549 320.163 53.38 321.832 51.3094 321.832Z" fill="#BF4040"/>
<path d="M26.5222 321.832H24.1166C22.0459 321.832 20.3711 320.163 20.3711 318.1V315.704C20.3711 313.641 22.0459 311.972 24.1166 311.972H26.5222C28.5929 311.972 30.2678 313.641 30.2678 315.704V318.1C30.2678 320.163 28.5929 321.832 26.5222 321.832Z" fill="#BF4040"/>
<path d="M51.3094 295.923H48.9037C46.833 295.923 45.1582 294.255 45.1582 292.192V289.795C45.1582 287.733 46.833 286.064 48.9037 286.064H51.3094C53.38 286.064 55.0549 287.733 55.0549 289.795V292.192C55.0549 294.255 53.38 295.923 51.3094 295.923Z" fill="#BF4040"/>
<path d="M26.5222 295.923H24.1166C22.0459 295.923 20.3711 294.255 20.3711 292.192V289.795C20.3711 287.733 22.0459 286.064 24.1166 286.064H26.5222C28.5929 286.064 30.2678 287.733 30.2678 289.795V292.192C30.2678 294.255 28.5929 295.923 26.5222 295.923Z" fill="#BF4040"/>
<path d="M51.3094 270.016H48.9037C46.833 270.016 45.1582 268.348 45.1582 266.285V263.888C45.1582 261.825 46.833 260.157 48.9037 260.157H51.3094C53.38 260.157 55.0549 261.825 55.0549 263.888V266.285C55.0549 268.348 53.38 270.016 51.3094 270.016Z" fill="#BF4040"/>
<path d="M26.5222 270.016H24.1166C22.0459 270.016 20.3711 268.348 20.3711 266.285V263.888C20.3711 261.825 22.0459 260.157 24.1166 260.157H26.5222C28.5929 260.157 30.2678 261.825 30.2678 263.888V266.285C30.2678 268.348 28.5929 270.016 26.5222 270.016Z" fill="#BF4040"/>
<path d="M67.9672 246.171V247.263C67.9672 248.234 67.1754 249.023 66.201 249.023H0V244.442H66.2315C67.2059 244.442 67.9672 245.231 67.9672 246.171Z" fill="#A07657"/>
<path d="M84.8982 268.589H58.0098V356.931H84.8982V268.589Z" fill="#FFBA08"/>
<path d="M144.187 268.589H84.8682V356.931H144.187V268.589Z" fill="#EAA203"/>
<path d="M130.545 321.133H128.139C126.068 321.133 124.394 319.465 124.394 317.402V315.005C124.394 312.942 126.068 311.274 128.139 311.274H130.545C132.615 311.274 134.29 312.942 134.29 315.005V317.402C134.29 319.465 132.585 321.133 130.545 321.133Z" fill="#DD8C0A"/>
<path d="M105.758 321.133H103.352C101.281 321.133 99.6064 319.465 99.6064 317.402V315.005C99.6064 312.942 101.281 311.274 103.352 311.274H105.758C107.828 311.274 109.503 312.942 109.503 315.005V317.402C109.503 319.465 107.828 321.133 105.758 321.133Z" fill="#DD8C0A"/>
<path d="M130.545 295.226H128.139C126.068 295.226 124.394 293.557 124.394 291.494V289.098C124.394 287.035 126.068 285.366 128.139 285.366H130.545C132.615 285.366 134.29 287.035 134.29 289.098V291.494C134.29 293.557 132.585 295.226 130.545 295.226Z" fill="#DD8C0A"/>
<path d="M105.758 295.226H103.352C101.281 295.226 99.6064 293.557 99.6064 291.494V289.098C99.6064 287.035 101.281 285.366 103.352 285.366H105.758C107.828 285.366 109.503 287.035 109.503 289.098V291.494C109.503 293.557 107.828 295.226 105.758 295.226Z" fill="#DD8C0A"/>
<path d="M68.4246 316.917H75.337C76.7073 316.917 77.8036 318.009 77.8036 319.374V337.879H65.958V319.374C65.958 318.009 67.0847 316.917 68.4246 316.917Z" fill="#DD8C0A"/>
<path d="M69.429 285.002H74.3316C75.5801 285.002 76.585 286.004 76.585 287.247V294.104C76.585 296.561 74.5753 298.563 72.1087 298.563H71.6824C69.2158 298.563 67.2061 296.561 67.2061 294.104V287.247C67.2061 286.004 68.2109 285.002 69.429 285.002Z" fill="#DD8C0A"/>
<path d="M66.5059 296.622H77.316C77.316 297.683 76.433 298.563 75.3672 298.563H68.4547C67.3585 298.563 66.5059 297.714 66.5059 296.622Z" fill="#A07657"/>
<path d="M145.435 268.59H56.731C55.7566 268.59 54.9648 267.801 54.9648 266.83V265.738C54.9648 264.767 55.7566 263.979 56.731 263.979H145.435C146.41 263.979 147.202 264.767 147.202 265.738V266.83C147.202 267.801 146.41 268.59 145.435 268.59Z" fill="#A07657"/>
<path d="M578.574 271.957V297.683C578.726 297.713 578.848 297.713 579 297.713H578.574V356.931H566.211V249.022H578.574V271.957Z" fill="#9D75CB"/>
<path d="M506.898 356.935H566.217V249.026H506.898V356.935Z" fill="#966BC7"/>
<path d="M520.564 321.831H522.97C525.04 321.831 526.715 320.163 526.715 318.1V315.703C526.715 313.64 525.04 311.972 522.97 311.972H520.564C518.493 311.972 516.818 313.64 516.818 315.703V318.1C516.818 320.163 518.493 321.831 520.564 321.831Z" fill="#8B5CC1"/>
<path d="M545.351 321.831H547.757C549.827 321.831 551.502 320.163 551.502 318.1V315.703C551.502 313.64 549.827 311.972 547.757 311.972H545.351C543.28 311.972 541.605 313.64 541.605 315.703V318.1C541.605 320.163 543.28 321.831 545.351 321.831Z" fill="#8B5CC1"/>
<path d="M520.564 295.923H522.97C525.04 295.923 526.715 294.255 526.715 292.192V289.795C526.715 287.733 525.04 286.064 522.97 286.064H520.564C518.493 286.064 516.818 287.733 516.818 289.795V292.192C516.818 294.255 518.493 295.923 520.564 295.923Z" fill="#8B5CC1"/>
<path d="M545.351 295.923H547.757C549.827 295.923 551.502 294.255 551.502 292.192V289.795C551.502 287.733 549.827 286.064 547.757 286.064H545.351C543.28 286.064 541.605 287.733 541.605 289.795V292.192C541.605 294.255 543.28 295.923 545.351 295.923Z" fill="#8B5CC1"/>
<path d="M520.564 270.016H522.97C525.04 270.016 526.715 268.347 526.715 266.284V263.888C526.715 261.825 525.04 260.156 522.97 260.156H520.564C518.493 260.156 516.818 261.825 516.818 263.888V266.284C516.818 268.347 518.493 270.016 520.564 270.016Z" fill="#8B5CC1"/>
<path d="M545.351 270.016H547.757C549.827 270.016 551.502 268.347 551.502 266.284V263.888C551.502 261.825 549.827 260.156 547.757 260.156H545.351C543.28 260.156 541.605 261.825 541.605 263.888V266.284C541.605 268.347 543.28 270.016 545.351 270.016Z" fill="#8B5CC1"/>
<path d="M578.573 318.858V339.852H573.274V321.346C573.274 319.981 574.371 318.889 575.741 318.889H578.573V318.858Z" fill="#8B5CC1"/>
<path d="M578.573 284.123V297.683C578.513 297.683 578.482 297.683 578.421 297.653C577.142 297.501 576.016 296.773 575.315 295.742C574.828 295.014 574.523 294.134 574.523 293.193V286.337C574.523 285.093 575.528 284.092 576.777 284.092H578.573V284.123Z" fill="#8B5CC1"/>
<path d="M578.573 258.366V271.927C578.513 271.927 578.482 271.927 578.421 271.897C577.142 271.745 576.016 271.017 575.315 269.985C574.828 269.257 574.523 268.377 574.523 267.467V260.611C574.523 259.367 575.528 258.366 576.777 258.366H578.573Z" fill="#8B5CC1"/>
<path d="M579 297.683H575.772C575.224 297.683 574.737 297.47 574.402 297.106C574.036 296.742 573.823 296.257 573.823 295.741H578.573V297.652C578.726 297.683 578.848 297.683 579 297.683Z" fill="#A07657"/>
<path d="M575.772 271.957C575.224 271.957 574.737 271.745 574.402 271.381C574.036 271.017 573.823 270.531 573.823 270.016H578.574V271.927" fill="#A07657"/>
<path d="M578.574 244.441V249.022H505.643C504.669 249.022 503.877 248.234 503.877 247.263V246.171C503.877 245.2 504.669 244.411 505.643 244.411H578.574V244.441Z" fill="#A07657"/>
<path d="M434.235 230.76H407.347V356.932H434.235V230.76Z" fill="#7DA6CA"/>
<path d="M348.031 356.935H407.35V230.763H348.031V356.935Z" fill="#6E9CC4"/>
<path d="M361.701 303.568H364.106C366.177 303.568 367.852 301.9 367.852 299.837V297.44C367.852 295.378 366.177 293.709 364.106 293.709H361.701C359.63 293.709 357.955 295.378 357.955 297.44V299.837C357.955 301.9 359.63 303.568 361.701 303.568Z" fill="#5188B8"/>
<path d="M386.457 303.568H388.863C390.934 303.568 392.609 301.9 392.609 299.837V297.44C392.609 295.378 390.934 293.709 388.863 293.709H386.457C384.387 293.709 382.712 295.378 382.712 297.44V299.837C382.712 301.9 384.387 303.568 386.457 303.568Z" fill="#5188B8"/>
<path d="M361.701 328.081H364.106C366.177 328.081 367.852 326.413 367.852 324.35V321.953C367.852 319.89 366.177 318.222 364.106 318.222H361.701C359.63 318.222 357.955 319.89 357.955 321.953V324.35C357.955 326.413 359.63 328.081 361.701 328.081Z" fill="#5188B8"/>
<path d="M386.457 328.081H388.863C390.934 328.081 392.609 326.413 392.609 324.35V321.953C392.609 319.89 390.934 318.222 388.863 318.222H386.457C384.387 318.222 382.712 319.89 382.712 321.953V324.35C382.712 326.413 384.387 328.081 386.457 328.081Z" fill="#5188B8"/>
<path d="M361.701 277.661H364.106C366.177 277.661 367.852 275.992 367.852 273.929V271.533C367.852 269.47 366.177 267.801 364.106 267.801H361.701C359.63 267.801 357.955 269.47 357.955 271.533V273.929C357.955 275.992 359.63 277.661 361.701 277.661Z" fill="#5188B8"/>
<path d="M386.457 277.661H388.863C390.934 277.661 392.609 275.992 392.609 273.929V271.533C392.609 269.47 390.934 267.801 388.863 267.801H386.457C384.387 267.801 382.712 269.47 382.712 271.533V273.929C382.712 275.992 384.387 277.661 386.457 277.661Z" fill="#5188B8"/>
<path d="M361.701 251.753H364.106C366.177 251.753 367.852 250.085 367.852 248.022V245.595C367.852 243.532 366.177 241.863 364.106 241.863H361.701C359.63 241.863 357.955 243.532 357.955 245.595V247.991C357.955 250.085 359.63 251.753 361.701 251.753Z" fill="#5188B8"/>
<path d="M386.457 251.753H388.863C390.934 251.753 392.609 250.085 392.609 248.022V245.595C392.609 243.532 390.934 241.863 388.863 241.863H386.457C384.387 241.863 382.712 243.532 382.712 245.595V247.991C382.712 250.085 384.387 251.753 386.457 251.753Z" fill="#5188B8"/>
<path d="M423.79 317.675H416.878C415.507 317.675 414.411 318.767 414.411 320.133V338.638H426.257V320.133C426.257 318.798 425.16 317.675 423.79 317.675Z" fill="#5188B8"/>
<path d="M422.786 265.86H417.883C416.635 265.86 415.63 266.861 415.63 268.105V274.961C415.63 277.418 417.64 279.421 420.106 279.421H420.533C422.999 279.421 425.009 277.418 425.009 274.961V268.105C425.039 266.861 424.034 265.86 422.786 265.86Z" fill="#5188B8"/>
<path d="M425.739 277.479H414.929C414.929 278.541 415.812 279.421 416.878 279.421H423.79C424.856 279.421 425.739 278.571 425.739 277.479Z" fill="#A07657"/>
<path d="M422.786 291.95H417.883C416.635 291.95 415.63 292.951 415.63 294.195V301.051C415.63 303.508 417.64 305.51 420.106 305.51H420.533C422.999 305.51 425.009 303.508 425.009 301.051V294.195C425.039 292.951 424.034 291.95 422.786 291.95Z" fill="#5188B8"/>
<path d="M425.739 303.569H414.929C414.929 304.631 415.812 305.51 416.878 305.51H423.79C424.856 305.51 425.739 304.661 425.739 303.569Z" fill="#A07657"/>
<path d="M422.786 240.104H417.883C416.635 240.104 415.63 241.105 415.63 242.348V249.205C415.63 251.662 417.64 253.664 420.106 253.664H420.533C422.999 253.664 425.009 251.662 425.009 249.205V242.348C425.039 241.105 424.034 240.104 422.786 240.104Z" fill="#5188B8"/>
<path d="M425.739 251.753H414.929C414.929 252.815 415.812 253.695 416.878 253.695H423.79C424.856 253.695 425.739 252.815 425.739 251.753Z" fill="#A07657"/>
<path d="M346.779 230.76H435.483C436.458 230.76 437.25 229.971 437.25 229V227.908C437.25 226.937 436.458 226.148 435.483 226.148H346.779C345.804 226.148 345.013 226.937 345.013 227.908V229C345.013 229.971 345.804 230.76 346.779 230.76Z" fill="#A07657"/>
<path d="M515.053 268.589H488.164V356.931H515.053V268.589Z" fill="#E85B5B"/>
<path d="M428.844 356.938H488.163V268.596H428.844V356.938Z" fill="#D85252"/>
<path d="M442.517 321.133H444.923C446.993 321.133 448.668 319.465 448.668 317.402V315.005C448.668 312.942 446.993 311.274 444.923 311.274H442.517C440.446 311.274 438.771 312.942 438.771 315.005V317.402C438.771 319.465 440.446 321.133 442.517 321.133Z" fill="#BF4040"/>
<path d="M467.304 321.133H469.71C471.78 321.133 473.455 319.465 473.455 317.402V315.005C473.455 312.942 471.78 311.274 469.71 311.274H467.304C465.233 311.274 463.559 312.942 463.559 315.005V317.402C463.559 319.465 465.233 321.133 467.304 321.133Z" fill="#BF4040"/>
<path d="M442.517 295.226H444.923C446.993 295.226 448.668 293.557 448.668 291.494V289.098C448.668 287.035 446.993 285.366 444.923 285.366H442.517C440.446 285.366 438.771 287.035 438.771 289.098V291.494C438.771 293.557 440.446 295.226 442.517 295.226Z" fill="#BF4040"/>
<path d="M467.304 295.226H469.71C471.78 295.226 473.455 293.557 473.455 291.494V289.098C473.455 287.035 471.78 285.366 469.71 285.366H467.304C465.233 285.366 463.559 287.035 463.559 289.098V291.494C463.559 293.557 465.233 295.226 467.304 295.226Z" fill="#BF4040"/>
<path d="M504.607 316.917H497.695C496.325 316.917 495.229 318.009 495.229 319.374V337.879H507.074V319.374C507.104 318.009 505.978 316.917 504.607 316.917Z" fill="#BF4040"/>
<path d="M503.603 285.002H498.701C497.452 285.002 496.447 286.004 496.447 287.247V294.104C496.447 296.561 498.457 298.563 500.924 298.563H501.35C503.816 298.563 505.826 296.561 505.826 294.104V287.247C505.857 286.004 504.852 285.002 503.603 285.002Z" fill="#BF4040"/>
<path d="M506.556 296.622H495.746C495.746 297.683 496.629 298.563 497.695 298.563H504.607C505.673 298.563 506.556 297.714 506.556 296.622Z" fill="#A07657"/>
<path d="M427.596 268.59H516.301C517.275 268.59 518.067 267.801 518.067 266.83V265.738C518.067 264.767 517.275 263.979 516.301 263.979H427.596C426.622 263.979 425.83 264.767 425.83 265.738V266.83C425.861 267.801 426.652 268.59 427.596 268.59Z" fill="#A07657"/>
<path d="M524.065 307.482H522.238V338.729H524.065V307.482Z" fill="#383838"/>
<path d="M525.101 312.76H521.203L520.229 305.479H526.075L525.101 312.76Z" fill="#EEEFB4"/>
<path d="M526.319 304.994H519.985C519.711 304.994 519.498 305.207 519.498 305.48C519.498 305.753 519.711 305.965 519.985 305.965H526.319C526.593 305.965 526.806 305.753 526.806 305.48C526.806 305.207 526.593 304.994 526.319 304.994Z" fill="#383838"/>
<path d="M524.37 304.023H521.934C521.386 304.023 520.96 304.448 520.96 304.994H525.345C525.345 304.448 524.919 304.023 524.37 304.023Z" fill="#383838"/>
<path d="M524.949 313.489H521.325C520.99 313.489 520.686 313.216 520.686 312.852V312.67C520.686 312.579 520.777 312.488 520.868 312.488H525.375C525.466 312.488 525.558 312.579 525.558 312.67V312.852C525.588 313.216 525.314 313.489 524.949 313.489Z" fill="#383838"/>
<path d="M368.154 307.482H366.327V338.729H368.154V307.482Z" fill="#383838"/>
<path d="M369.19 312.76H365.292L364.317 305.479H370.164L369.19 312.76Z" fill="#EEEFB4"/>
<path d="M370.408 304.994H364.074C363.8 304.994 363.587 305.207 363.587 305.48C363.587 305.753 363.8 305.965 364.074 305.965H370.408C370.682 305.965 370.895 305.753 370.895 305.48C370.895 305.207 370.682 304.994 370.408 304.994Z" fill="#383838"/>
<path d="M368.459 304.023H366.023C365.475 304.023 365.049 304.448 365.049 304.994H369.434C369.434 304.448 369.007 304.023 368.459 304.023Z" fill="#383838"/>
<path d="M369.038 313.489H365.414C365.079 313.489 364.774 313.216 364.774 312.852V312.67C364.774 312.579 364.866 312.488 364.957 312.488H369.464C369.555 312.488 369.647 312.579 369.647 312.67V312.852C369.677 313.216 369.403 313.489 369.038 313.489Z" fill="#383838"/>
<path d="M212.244 307.482H210.417V338.729H212.244V307.482Z" fill="#383838"/>
<path d="M213.279 312.76H209.382L208.407 305.479H214.254L213.279 312.76Z" fill="#EEEFB4"/>
<path d="M214.498 304.994H208.164C207.89 304.994 207.677 305.207 207.677 305.48C207.677 305.753 207.89 305.965 208.164 305.965H214.498C214.772 305.965 214.985 305.753 214.985 305.48C214.985 305.207 214.772 304.994 214.498 304.994Z" fill="#383838"/>
<path d="M212.549 304.023H210.113C209.565 304.023 209.139 304.448 209.139 304.994H213.524C213.524 304.448 213.097 304.023 212.549 304.023Z" fill="#383838"/>
<path d="M213.127 313.489H209.504C209.169 313.489 208.864 313.216 208.864 312.852V312.67C208.864 312.579 208.956 312.488 209.047 312.488H213.554C213.645 312.488 213.736 312.579 213.736 312.67V312.852C213.767 313.216 213.493 313.489 213.127 313.489Z" fill="#383838"/>
<path d="M56.3339 307.482H54.5068V338.729H56.3339V307.482Z" fill="#383838"/>
<path d="M57.3693 312.76H53.4715L52.4971 305.479H58.3437L57.3693 312.76Z" fill="#EEEFB4"/>
<path d="M58.5877 304.994H52.2538C51.9798 304.994 51.7666 305.207 51.7666 305.48C51.7666 305.753 51.9798 305.965 52.2538 305.965H58.5877C58.8617 305.965 59.0749 305.753 59.0749 305.48C59.0749 305.207 58.8617 304.994 58.5877 304.994Z" fill="#383838"/>
<path d="M56.6391 304.023H54.203C53.6548 304.023 53.2285 304.448 53.2285 304.994H57.6135C57.6135 304.448 57.1872 304.023 56.6391 304.023Z" fill="#383838"/>
<path d="M57.2173 313.489H53.5936C53.2586 313.489 52.9541 313.216 52.9541 312.852V312.67C52.9541 312.579 53.0455 312.488 53.1368 312.488H57.6436C57.7349 312.488 57.8263 312.579 57.8263 312.67V312.852C57.8567 313.216 57.5827 313.489 57.2173 313.489Z" fill="#383838"/>
<path d="M268.185 338.547H233.866C233.044 338.547 232.374 339.215 232.374 340.034V351.35C232.374 353.352 233.988 354.96 235.967 354.96H268.185C269.007 354.96 269.677 354.292 269.677 353.473V340.034C269.677 339.215 269.007 338.547 268.185 338.547Z" fill="#B06B39" stroke="#B08383" stroke-width="6"/>
<path d="M306.432 338.547H272.418C271.596 338.547 270.926 339.215 270.926 340.034V353.473C270.926 354.292 271.596 354.96 272.418 354.96H306.432C307.254 354.96 307.924 354.292 307.924 353.473V340.034C307.924 339.215 307.254 338.547 306.432 338.547Z" fill="#B06B39" stroke="#B08383" stroke-width="6"/>
<path d="M287.247 321.013H252.898C252.076 321.013 251.406 321.68 251.406 322.499V335.787C251.406 336.606 252.076 337.273 252.898 337.273H287.217C288.039 337.273 288.709 336.606 288.709 335.787V322.499C288.709 321.68 288.039 321.013 287.247 321.013Z" fill="#B06B39" stroke="#B08383" stroke-width="6"/>
<path d="M306.279 303.356H272.113C271.291 303.356 270.621 304.024 270.621 304.843V318.282C270.621 319.101 271.291 319.769 272.113 319.769H306.279C307.102 319.769 307.772 319.101 307.772 318.282V304.843C307.772 303.994 307.102 303.356 306.279 303.356Z" fill="#B06B39" stroke="#B08383" stroke-width="6"/>
<path d="M345.014 338.547H310.695C309.873 338.547 309.203 339.215 309.203 340.034V353.473C309.203 354.292 309.873 354.96 310.695 354.96H342.882C344.862 354.96 346.475 353.352 346.475 351.35V340.034C346.475 339.215 345.805 338.547 345.014 338.547Z" fill="#B06B39" stroke="#B08383" stroke-width="6"/>
<path d="M325.646 321.013H291.479C290.657 321.013 289.987 321.68 289.987 322.499V335.787C289.987 336.606 290.657 337.273 291.479 337.273H325.646C326.468 337.273 327.138 336.606 327.138 335.787V322.499C327.107 321.68 326.468 321.013 325.646 321.013Z" fill="#B06B39" stroke="#B08383" stroke-width="6"/>
<path d="M291.937 275.901H288.069V288.431H291.937V275.901Z" fill="#FFBA08"/>
<path d="M286.698 277.024H293.245C293.245 278.51 292.058 279.724 290.566 279.724H289.439C287.947 279.754 286.698 278.51 286.698 277.024Z" fill="#F9AE08"/>
<path d="M286.698 289.25H293.245C293.245 288.552 292.697 288.036 292.027 288.036H287.947C287.277 288.036 286.698 288.582 286.698 289.25Z" fill="#FF9F1C"/>
<path d="M283.837 290.706H296.17C296.17 289.917 295.5 289.25 294.708 289.25H285.299C284.476 289.25 283.837 289.917 283.837 290.706Z" fill="#F9AE08"/>
<path d="M281.674 294.194H298.3C298.696 294.194 299.031 293.891 299.031 293.466V291.464C299.031 291.07 298.727 290.736 298.3 290.736H281.674C281.278 290.736 280.943 291.039 280.943 291.464V293.466C280.943 293.891 281.248 294.194 281.674 294.194Z" fill="#9C5D1C"/>
<path d="M289.987 278.207C285.816 278.207 282.436 274.84 282.436 270.653V261.613H297.539V270.653C297.57 274.809 294.159 278.207 289.987 278.207Z" fill="#FFBA08"/>
<path d="M297.692 261.613H282.283C281.552 261.613 280.943 261.006 280.943 260.278H299.062C299.062 261.006 298.453 261.613 297.692 261.613Z" fill="#FF9F1C"/>
<path d="M299.123 260.277H280.852C279.939 260.277 279.208 259.549 279.208 258.609H300.798C300.798 259.519 300.037 260.277 299.123 260.277Z" fill="#F9AE08"/>
<path d="M297.082 268.195H282.739C282.191 268.195 281.734 268.65 281.734 269.196V269.894C281.734 270.44 282.191 270.895 282.739 270.895H297.082C297.63 270.895 298.087 270.44 298.087 269.894V269.196C298.087 268.65 297.63 268.195 297.082 268.195Z" fill="#F9AE08"/>
<path d="M289.043 272.655L287.033 270.38C286.637 269.925 286.637 269.197 287.033 268.742L289.043 266.466C289.53 265.89 290.413 265.89 290.931 266.466L292.941 268.742C293.337 269.197 293.337 269.925 292.941 270.38L290.931 272.655C290.413 273.201 289.561 273.201 289.043 272.655Z" fill="#FF9F1C"/>
<path d="M289.531 271.017L288.587 269.925C288.373 269.682 288.373 269.379 288.587 269.166L289.531 268.074C289.744 267.831 290.201 267.831 290.414 268.074L291.358 269.166C291.571 269.409 291.571 269.712 291.358 269.925L290.414 271.017C290.201 271.259 289.805 271.259 289.531 271.017Z" fill="#F93B15"/>
<path d="M306.827 254.211L308.563 252.481" stroke="#F9AE08" stroke-width="2" stroke-miterlimit="10"/>
<path d="M310.024 251.025L313.953 247.081" stroke="#F9AE08" stroke-width="2" stroke-miterlimit="10"/>
<path d="M289.987 244.836V242.379" stroke="#F9AE08" stroke-width="2" stroke-miterlimit="10"/>
<path d="M289.987 239.406V235.674" stroke="#F9AE08" stroke-width="2" stroke-miterlimit="10"/>
<path d="M311.912 265.223H314.379" stroke="#F9AE08" stroke-width="2" stroke-miterlimit="10"/>
<path d="M316.449 265.223H322.022" stroke="#F9AE08" stroke-width="2" stroke-miterlimit="10"/>
<path d="M274.336 254.21L270.377 250.236" stroke="#F9AE08" stroke-width="2" stroke-miterlimit="10"/>
<path d="M269.159 249.053L266.905 246.808" stroke="#F9AE08" stroke-width="2" stroke-miterlimit="10"/>
<path d="M268.124 265.223H265.627" stroke="#F9AE08" stroke-width="2" stroke-miterlimit="10"/>
<path d="M263.586 265.223H258.014" stroke="#F9AE08" stroke-width="2" stroke-miterlimit="10"/>
<path d="M306.644 296.986H271.625V298.806H306.644V296.986Z" fill="#675618"/>
<path d="M305.426 298.806H301.163V302.446H305.426V298.806Z" fill="#675618"/>
<path d="M277.715 298.806H273.452V302.446H277.715V298.806Z" fill="#675618"/>
<path d="M578.574 338.729V456.468C578.574 464.477 572.057 470.999 563.988 470.999H14.5861C6.54702 470.999 0 464.507 0 456.468V338.729H578.574Z" fill="#535353"/>
</g>
<path d="M306.754 262.267L305.249 257.581L309.972 252.39L311.944 256.623L306.754 262.267Z" fill="#EF4B3A"/>
<path d="M263.594 205.211L262.089 200.525L266.777 195.292L268.749 199.526L263.594 205.211Z" fill="#7FD8F4"/>
<path d="M253.958 264.499L254.628 259.911L261.521 257.955L261.453 262.328L253.958 264.499Z" fill="#FFDC4A"/>
<path d="M194.545 278.736L193.886 273.914L199.635 269.902L200.829 274.355L194.545 278.736Z" fill="#FFDC4A"/>
<path d="M341.392 234.941L341.329 230.189L347.654 227.027L348.285 231.524L341.392 234.941Z" fill="#EF4B3A"/>
<path d="M396.676 279.136L392.928 275.73L393.562 268.248L397.36 270.986L396.676 279.136Z" fill="#FFDC4A"/>
<path d="M232.324 349.411L232.54 344.708L239.135 342.022L239.487 346.469L232.324 349.411Z" fill="#FFDC4A"/>
<path d="M394.837 188.869L391.126 185.434L391.759 177.952L395.557 180.69L394.837 188.869Z" fill="#FF8133"/>
<path d="M362.249 290.064L358.538 286.628L359.171 279.146L362.969 281.884L362.249 290.064Z" fill="#FF8133"/>
<path d="M338.084 346.759L334.373 343.323L335.006 335.842L338.804 338.58L338.084 346.759Z" fill="#FF8133"/>
<path d="M296.836 310.496L295.014 305.861L299.324 300.312L301.579 304.453L296.836 310.496Z" fill="#7FD8F4"/>
<path d="M407.512 233.635L403.764 230.228L404.397 222.747L408.196 225.485L407.512 233.635Z" fill="#7FD8F4"/>
<path d="M241.266 155.295L236.658 154.125L233.426 146.746L237.767 147.298L241.266 155.295Z" fill="#FF8133"/>
<path d="M328.718 193.471L327.39 188.709L332.492 183.834L334.181 188.161L328.718 193.471Z" fill="#FF8133"/>
<path d="M294.531 166.355L299.159 166.673L302.573 160.395L298.24 159.488L294.531 166.355Z" fill="#EF4B3A"/>
<path d="M310.457 88.1786L314.983 89.833L320.187 85.0833L316.092 83.006L310.457 88.1786Z" fill="#7FD8F4"/>
<path d="M356.024 134.25L360.55 135.904L365.754 131.155L361.66 129.077L356.024 134.25Z" fill="#7FD8F4"/>
<path d="M294.628 338.626L296.697 343.197L304.205 344.986L302.764 340.596L294.628 338.626Z" fill="#7FD8F4"/>
<path d="M208.565 210.465L212.709 208.95L213.378 201.44L209.284 202.286L208.565 210.465Z" fill="#FFDC4A"/>
<path d="M214.794 90.9136L219.46 91.131L222.666 84.7453L218.329 83.9799L214.794 90.9136Z" fill="#EF4B3A"/>
<path d="M183.027 150.851L187.172 149.336L187.841 141.825L183.747 142.671L183.027 150.851Z" fill="#FFDC4A"/>
<path d="M238.252 307.999L239.968 312.651L247.357 315.025L246.302 310.597L238.252 307.999Z" fill="#FF8133"/>
<path d="M267.111 98.1348L271.256 96.6204L271.925 89.1095L267.831 89.9556L267.111 98.1348Z" fill="#7FD8F4"/>
<path d="M415.155 132.244L419.299 130.73L419.932 123.248L415.839 124.094L415.155 132.244Z" fill="#FF8133"/>
<defs>
<clipPath id="clip0">
<rect width="579" height="324" fill="white" transform="translate(0 146.999)"/>
</clipPath>
</defs>
</svg>
