<svg width="520" height="427" viewBox="0 0 520 427" fill="none" xmlns="http://www.w3.org/2000/svg">
<g clip-path="url(#clip0)">
<path d="M244.174 443.726C220.909 445.897 197.451 444.659 174.543 440.05L71.4073 419.303C67.5048 418.517 63.9478 416.525 61.2396 413.608L49.784 401.268C34.4929 384.796 25.0583 363.742 22.9408 341.367L22.2391 333.951C21.2906 323.929 18.1517 314.238 13.0442 305.563L10.2 300.732C-0.769292 282.101 -0.717359 258.974 10.3355 240.392V240.392C17.1146 228.995 19.8739 215.653 18.1716 202.502L15.7954 184.145C11.5388 151.26 21.9651 118.168 44.3037 93.6623L51.2412 86.0518C60.6207 75.7624 71.6189 67.0753 83.8007 60.3339L91.3638 56.1486C114.16 43.5334 140.824 39.8185 166.2 45.7222V45.7222C193.641 52.1063 222.496 47.2258 246.311 32.1723L250.322 29.6369C284.398 8.09748 327.182 5.6827 363.465 23.2509L430.151 55.5396C449.064 64.6973 461.077 84.17 461.077 105.184V105.184C461.077 122.1 469.046 138.269 482.583 148.412L488.382 152.757C510.132 169.054 513.541 200.358 495.809 220.955V220.955C485.409 233.034 481.849 249.565 486.355 264.854L488.639 272.606C496.634 299.734 485.188 328.827 460.853 343.236L454.514 346.989C440.758 355.134 430.141 367.668 424.37 382.577L423.693 384.325C413.197 411.438 388.269 430.28 359.321 432.981L244.174 443.726Z" fill="#161616"/>
<g opacity="0.58">
<g opacity="0.2">
<g filter="url(#filter0_d)">
<rect x="398.665" y="129.247" width="0.813353" height="2.44006" fill="white"/>
</g>
<g filter="url(#filter1_d)">
<rect x="400.293" y="130.061" width="0.813353" height="2.44006" transform="rotate(90 400.293 130.061)" fill="white"/>
</g>
<g filter="url(#filter2_d)">
<rect x="398.665" y="129.247" width="0.813353" height="2.44006" fill="white"/>
</g>
<g filter="url(#filter3_d)">
<rect x="400.293" y="130.061" width="0.813353" height="2.44006" transform="rotate(90 400.293 130.061)" fill="white"/>
</g>
<g filter="url(#filter4_d)">
<rect x="424.693" y="64.1807" width="0.813353" height="2.44006" fill="white"/>
</g>
<g filter="url(#filter5_d)">
<rect x="426.321" y="64.9941" width="0.813353" height="2.44006" transform="rotate(90 426.321 64.9941)" fill="white"/>
</g>
<g filter="url(#filter6_d)">
<rect x="358.813" y="86.9531" width="0.813353" height="2.44006" fill="white"/>
</g>
<g filter="url(#filter7_d)">
<rect x="360.44" y="87.7666" width="0.813353" height="2.44006" transform="rotate(90 360.44 87.7666)" fill="white"/>
</g>
<g filter="url(#filter8_d)">
<rect x="103.42" y="224.41" width="0.813353" height="2.44006" fill="white"/>
</g>
<g filter="url(#filter9_d)">
<rect x="105.048" y="225.224" width="0.813353" height="2.44006" transform="rotate(90 105.048 225.224)" fill="white"/>
</g>
<g filter="url(#filter10_d)">
<rect x="288.865" y="86.9531" width="0.813353" height="2.44006" fill="white"/>
</g>
<g filter="url(#filter11_d)">
<rect x="290.492" y="87.7666" width="0.813353" height="2.44006" transform="rotate(90 290.492 87.7666)" fill="white"/>
</g>
<g filter="url(#filter12_d)">
<rect x="195.328" y="153.648" width="0.813353" height="2.44006" fill="white"/>
</g>
<g filter="url(#filter13_d)">
<rect x="196.956" y="154.462" width="0.813353" height="2.44006" transform="rotate(90 196.956 154.462)" fill="white"/>
</g>
<g filter="url(#filter14_d)">
<rect x="94.4717" y="153.648" width="0.813353" height="2.44006" fill="white"/>
</g>
<g filter="url(#filter15_d)">
<rect x="96.1006" y="154.462" width="0.813353" height="2.44006" transform="rotate(90 96.1006 154.462)" fill="white"/>
</g>
<g filter="url(#filter16_d)">
<rect x="133.513" y="77.1943" width="0.813353" height="2.44006" fill="white"/>
</g>
<g filter="url(#filter17_d)">
<rect x="135.141" y="78.0078" width="0.813353" height="2.44006" transform="rotate(90 135.141 78.0078)" fill="white"/>
</g>
<g filter="url(#filter18_d)">
<rect x="218.917" y="86.9531" width="0.813353" height="2.44006" fill="white"/>
</g>
<g filter="url(#filter19_d)">
<rect x="220.544" y="87.7666" width="0.813353" height="2.44006" transform="rotate(90 220.544 87.7666)" fill="white"/>
</g>
<g filter="url(#filter20_d)">
<rect x="255.516" y="51.9785" width="0.813353" height="2.44006" fill="white"/>
</g>
<g filter="url(#filter21_d)">
<rect x="257.144" y="52.791" width="0.813353" height="2.44006" transform="rotate(90 257.144 52.791)" fill="white"/>
</g>
<g filter="url(#filter22_d)">
<rect x="318.957" y="44.6592" width="0.813353" height="2.44006" fill="white"/>
</g>
<g filter="url(#filter23_d)">
<rect x="320.585" y="45.4727" width="0.813353" height="2.44006" transform="rotate(90 320.585 45.4727)" fill="white"/>
</g>
</g>
<g opacity="0.2">
<g filter="url(#filter24_d)">
<rect x="121.313" y="312.254" width="0.813353" height="2.44006" transform="rotate(-180 121.313 312.254)" fill="white"/>
</g>
<g filter="url(#filter25_d)">
<rect x="119.687" y="311.441" width="0.813353" height="2.44006" transform="rotate(-90 119.687 311.441)" fill="white"/>
</g>
<g filter="url(#filter26_d)">
<rect x="121.313" y="312.254" width="0.813353" height="2.44006" transform="rotate(-180 121.313 312.254)" fill="white"/>
</g>
<g filter="url(#filter27_d)">
<rect x="119.687" y="311.441" width="0.813353" height="2.44006" transform="rotate(-90 119.687 311.441)" fill="white"/>
</g>
<g filter="url(#filter28_d)">
<rect x="95.2861" y="377.32" width="0.813353" height="2.44006" transform="rotate(-180 95.2861 377.32)" fill="white"/>
</g>
<g filter="url(#filter29_d)">
<rect x="93.6582" y="376.507" width="0.813353" height="2.44006" transform="rotate(-90 93.6582 376.507)" fill="white"/>
</g>
<g filter="url(#filter30_d)">
<rect x="260.398" y="310.627" width="0.813353" height="2.44006" transform="rotate(-180 260.398 310.627)" fill="white"/>
</g>
<g filter="url(#filter31_d)">
<rect x="258.771" y="309.813" width="0.813353" height="2.44006" transform="rotate(-90 258.771 309.813)" fill="white"/>
</g>
<g filter="url(#filter32_d)">
<rect x="416.562" y="217.091" width="0.813353" height="2.44006" transform="rotate(-180 416.562 217.091)" fill="white"/>
</g>
<g filter="url(#filter33_d)">
<rect x="414.934" y="216.277" width="0.813353" height="2.44006" transform="rotate(-90 414.934 216.277)" fill="white"/>
</g>
<g filter="url(#filter34_d)">
<rect x="185.572" y="342.347" width="0.813353" height="2.44006" transform="rotate(-180 185.572 342.347)" fill="white"/>
</g>
<g filter="url(#filter35_d)">
<rect x="183.944" y="341.533" width="0.813353" height="2.44006" transform="rotate(-90 183.944 341.533)" fill="white"/>
</g>
<g filter="url(#filter36_d)">
<rect x="324.653" y="287.852" width="0.813353" height="2.44006" transform="rotate(-180 324.653 287.852)" fill="white"/>
</g>
<g filter="url(#filter37_d)">
<rect x="323.025" y="287.038" width="0.813353" height="2.44006" transform="rotate(-90 323.025 287.038)" fill="white"/>
</g>
<g filter="url(#filter38_d)">
<rect x="425.509" y="287.852" width="0.813353" height="2.44006" transform="rotate(-180 425.509 287.852)" fill="white"/>
</g>
<g filter="url(#filter39_d)">
<rect x="423.882" y="287.039" width="0.813353" height="2.44006" transform="rotate(-90 423.882 287.039)" fill="white"/>
</g>
<g filter="url(#filter40_d)">
<rect x="388.095" y="378.135" width="0.813353" height="2.44006" transform="rotate(-180 388.095 378.135)" fill="white"/>
</g>
<g filter="url(#filter41_d)">
<rect x="386.467" y="377.321" width="0.813353" height="2.44006" transform="rotate(-90 386.467 377.321)" fill="white"/>
</g>
<g filter="url(#filter42_d)">
<rect x="367.762" y="329.333" width="0.813353" height="2.44006" transform="rotate(-180 367.762 329.333)" fill="white"/>
</g>
<g filter="url(#filter43_d)">
<rect x="366.133" y="328.52" width="0.813353" height="2.44006" transform="rotate(-90 366.133 328.52)" fill="white"/>
</g>
<g filter="url(#filter44_d)">
<rect x="198.584" y="290.293" width="0.813353" height="2.44006" transform="rotate(-180 198.584 290.293)" fill="white"/>
</g>
<g filter="url(#filter45_d)">
<rect x="196.956" y="289.479" width="0.813353" height="2.44006" transform="rotate(-90 196.956 289.479)" fill="white"/>
</g>
<g filter="url(#filter46_d)">
<rect x="201.025" y="396.842" width="0.813353" height="2.44006" transform="rotate(-180 201.025 396.842)" fill="white"/>
</g>
<g filter="url(#filter47_d)">
<rect x="199.397" y="396.027" width="0.813353" height="2.44006" transform="rotate(-90 199.397 396.027)" fill="white"/>
</g>
</g>
</g>
<path d="M337.7 457H181.3C167.326 457 156 446.238 156 432.96V151.04C156 137.762 167.326 127 181.3 127H337.743C351.674 127 363 137.762 363 151.04V432.96C363 446.238 351.674 457 337.7 457Z" fill="#222222"/>
<path d="M311.009 326.69H207.99C199.855 326.69 193.273 320.131 193.273 312.025V166.195C193.273 158.089 199.855 151.53 207.99 151.53H311.05C319.185 151.53 325.767 158.089 325.767 166.195V312.025C325.767 320.131 319.185 326.69 311.009 326.69Z" fill="#333333"/>
<path d="M311.87 321H207.087C202.613 321 199 317.49 199 313.145V164.855C199 160.51 202.613 157 207.087 157H311.913C316.387 157 320 160.51 320 164.855V313.145C320 317.49 316.344 321 311.87 321Z" fill="#161616"/>
<path d="M228.416 173H285.894C289.004 173 291.543 178.579 291.543 185.487V315.253H222.767V185.487C222.767 178.579 225.291 173 228.416 173Z" fill="#161616"/>
<g clip-path="url(#clip1)">
<path d="M285.708 313.567H289.503C290.274 313.567 290.909 312.932 290.909 312.163V308.374C290.909 307.605 290.274 306.97 289.503 306.97H285.708C284.937 306.97 284.302 307.605 284.302 308.374V312.163C284.302 312.935 284.922 313.567 285.708 313.567Z" fill="#EEEEEE" stroke="black"/>
<path d="M275.61 312.163H275.61L275.61 312.172C275.597 312.932 276.225 313.567 276.998 313.567H280.811C281.582 313.567 282.218 312.932 282.218 312.163V308.374C282.218 307.605 281.582 306.97 280.811 306.97H277.017C276.246 306.97 275.61 307.605 275.61 308.374V312.163Z" fill="#EEEEEE" stroke="black"/>
<path d="M275.61 303.464H275.61L275.61 303.473C275.597 304.248 276.222 304.868 276.998 304.868H280.811C281.582 304.868 282.218 304.233 282.218 303.464V299.675C282.218 298.906 281.582 298.271 280.811 298.271H277.017C276.246 298.271 275.61 298.906 275.61 299.675V303.464Z" fill="#EEEEEE" stroke="black"/>
<path d="M268.306 313.567H272.1C272.871 313.567 273.507 312.932 273.507 312.163V308.374C273.507 307.605 272.871 306.97 272.1 306.97H268.306C267.535 306.97 266.899 307.605 266.899 308.374V312.163C266.899 312.935 267.519 313.567 268.306 313.567Z" fill="#EEEEEE" stroke="black"/>
<path d="M253.657 189.29H249.863C249.091 189.29 248.456 189.925 248.456 190.694V194.483C248.456 195.252 249.091 195.888 249.863 195.888H253.657C254.428 195.888 255.063 195.252 255.063 194.483V190.694C255.063 189.925 254.428 189.29 253.657 189.29Z" fill="#F59300" stroke="black"/>
<path d="M262.349 189.29H258.555C257.784 189.29 257.148 189.925 257.148 190.694V194.483C257.148 195.252 257.784 195.888 258.555 195.888H262.349C263.121 195.888 263.756 195.252 263.756 194.483V190.694C263.756 189.922 263.136 189.29 262.349 189.29Z" fill="#F59300" stroke="black"/>
<path d="M262.349 197.971H258.555C257.784 197.971 257.148 198.606 257.148 199.375V203.164C257.148 203.933 257.784 204.568 258.555 204.568H262.349C263.121 204.568 263.756 203.933 263.756 203.164V199.375C263.756 198.603 263.136 197.971 262.349 197.971Z" fill="#F59300" stroke="black"/>
<path d="M271.059 189.29H267.265C266.494 189.29 265.858 189.925 265.858 190.694V194.483C265.858 195.252 266.494 195.888 267.265 195.888H271.059C271.83 195.888 272.466 195.252 272.466 194.483V190.694C272.466 189.925 271.83 189.29 271.059 189.29Z" fill="#F59300" stroke="black"/>
<path d="M259.596 296.188H263.39C264.162 296.188 264.797 295.553 264.797 294.784V290.995C264.797 290.226 264.162 289.591 263.39 289.591H259.596C258.825 289.591 258.189 290.226 258.189 290.995V294.784C258.189 295.553 258.825 296.188 259.596 296.188Z" fill="#EEEEEE" stroke="black"/>
<path d="M250.905 296.188H254.699C255.47 296.188 256.105 295.553 256.105 294.784V290.995C256.105 290.226 255.47 289.591 254.699 289.591H250.905C250.133 289.591 249.498 290.226 249.498 290.995V294.784C249.498 295.553 250.133 296.188 250.905 296.188Z" fill="#EEEEEE" stroke="black"/>
<path d="M259.596 287.489H263.39C264.162 287.489 264.797 286.854 264.797 286.085V282.296C264.797 281.527 264.162 280.892 263.39 280.892H259.596C258.825 280.892 258.189 281.527 258.189 282.296V286.085C258.189 286.869 258.822 287.489 259.596 287.489Z" fill="#EEEEEE" stroke="black"/>
<path d="M250.905 287.489H254.699C255.47 287.489 256.105 286.854 256.105 286.085V282.296C256.105 281.527 255.47 280.892 254.699 280.892H250.905C250.133 280.892 249.498 281.527 249.498 282.296V286.085C249.498 286.869 250.13 287.489 250.905 287.489Z" fill="#EEEEEE" stroke="black"/>
<path d="M224.675 313.53H228.469C229.241 313.53 229.876 312.895 229.876 312.126V308.337C229.876 307.568 229.241 306.933 228.469 306.933H224.675C223.904 306.933 223.269 307.568 223.269 308.337V312.126C223.269 312.91 223.901 313.53 224.675 313.53Z" fill="#EEEEEE" stroke="black"/>
<path d="M250.905 313.568H254.699C255.47 313.568 256.105 312.933 256.105 312.164V308.375C256.105 307.606 255.47 306.971 254.699 306.971H250.905C250.133 306.971 249.498 307.606 249.498 308.375V312.164C249.498 312.933 250.133 313.568 250.905 313.568Z" fill="#EEEEEE" stroke="black"/>
<path d="M242.195 313.568H245.989C246.76 313.568 247.396 312.933 247.396 312.164V308.375C247.396 307.606 246.76 306.971 245.989 306.971H242.195C241.423 306.971 240.788 307.606 240.788 308.375V312.164C240.788 312.933 241.423 313.568 242.195 313.568Z" fill="#EEEEEE" stroke="black"/>
<path d="M233.502 313.568H237.297C238.068 313.568 238.703 312.933 238.703 312.164V308.375C238.703 307.606 238.068 306.971 237.297 306.971H233.502C232.731 306.971 232.096 307.606 232.096 308.375V312.164C232.096 312.933 232.731 313.568 233.502 313.568Z" fill="#EEEEEE" stroke="black"/>
<path d="M268.307 304.869H272.101C272.872 304.869 273.508 304.234 273.508 303.465V299.676C273.508 298.907 272.872 298.271 272.101 298.271H268.307C267.536 298.271 266.9 298.907 266.9 299.676V303.465C266.9 304.252 267.517 304.869 268.307 304.869Z" fill="#F59300" stroke="black"/>
<path d="M268.307 296.188H272.101C272.872 296.188 273.508 295.553 273.508 294.784V290.995C273.508 290.226 272.872 289.591 272.101 289.591H268.307C267.536 289.591 266.9 290.226 266.9 290.995V294.784C266.9 295.556 267.52 296.188 268.307 296.188Z" fill="#F59300" stroke="black"/>
<path d="M259.597 304.869H263.391C264.163 304.869 264.798 304.234 264.798 303.465V299.676C264.798 298.907 264.163 298.271 263.391 298.271H259.597C258.826 298.271 258.19 298.907 258.19 299.676V303.465C258.19 304.249 258.823 304.869 259.597 304.869Z" fill="#F59300" stroke="black"/>
<path d="M259.597 313.567H263.391C264.163 313.567 264.798 312.932 264.798 312.163V308.374C264.798 307.605 264.163 306.97 263.391 306.97H259.597C258.826 306.97 258.19 307.605 258.19 308.374V312.163C258.19 312.932 258.826 313.567 259.597 313.567Z" fill="#F59300" stroke="black"/>
<path d="M245.989 242.086H242.195C241.423 242.086 240.788 242.721 240.788 243.49V247.279C240.788 248.048 241.423 248.683 242.195 248.683H245.989C246.76 248.683 247.396 248.048 247.396 247.279V243.49C247.396 242.721 246.76 242.086 245.989 242.086Z" fill="#EEEEEE" stroke="black"/>
<path d="M245.989 250.784H242.195C241.42 250.784 240.788 251.404 240.788 252.188V255.978C240.788 256.746 241.423 257.382 242.195 257.382H245.989C246.76 257.382 247.396 256.746 247.396 255.978V252.188C247.396 251.42 246.76 250.784 245.989 250.784Z" fill="#EEEEEE" stroke="black"/>
<path d="M237.298 242.086H233.503C232.732 242.086 232.097 242.721 232.097 243.49V247.279C232.097 248.048 232.732 248.683 233.503 248.683H237.298C238.069 248.683 238.704 248.048 238.704 247.279V243.49C238.704 242.721 238.069 242.086 237.298 242.086Z" fill="#EEEEEE" stroke="black"/>
<path d="M237.298 233.405H233.503C232.729 233.405 232.097 234.025 232.097 234.809V238.599C232.097 239.367 232.732 240.003 233.503 240.003H237.298C238.069 240.003 238.704 239.367 238.704 238.599V234.809C238.704 234.041 238.069 233.405 237.298 233.405Z" fill="#EEEEEE" stroke="black"/>
</g>
<path d="M297.761 411.36C303.416 411.36 308 406.792 308 401.157C308 395.523 303.416 390.955 297.761 390.955C292.107 390.955 287.522 395.523 287.522 401.157C287.522 406.792 292.107 411.36 297.761 411.36Z" fill="#F59300"/>
<path d="M219.741 393.641C221.814 393.641 223.495 391.966 223.495 389.9C223.495 387.834 221.814 386.159 219.741 386.159C217.667 386.159 215.986 387.834 215.986 389.9C215.986 391.966 217.667 393.641 219.741 393.641Z" fill="#F59300"/>
<path d="M219.741 416.119C221.814 416.119 223.495 414.445 223.495 412.379C223.495 410.313 221.814 408.638 219.741 408.638C217.667 408.638 215.986 410.313 215.986 412.379C215.986 414.445 217.667 416.119 219.741 416.119Z" fill="#F59300"/>
<path d="M208.478 404.898C210.551 404.898 212.232 403.223 212.232 401.157C212.232 399.091 210.551 397.416 208.478 397.416C206.404 397.416 204.724 399.091 204.724 401.157C204.724 403.223 206.404 404.898 208.478 404.898Z" fill="#F59300"/>
<path d="M231.038 404.898C233.112 404.898 234.793 403.223 234.793 401.157C234.793 399.091 233.112 397.416 231.038 397.416C228.965 397.416 227.284 399.091 227.284 401.157C227.284 403.223 228.965 404.898 231.038 404.898Z" fill="#F59300"/>
<path d="M302.135 359.619C303.659 359.619 304.894 358.389 304.894 356.871C304.894 355.353 303.659 354.122 302.135 354.122C300.612 354.122 299.377 355.353 299.377 356.871C299.377 358.389 300.612 359.619 302.135 359.619Z" fill="#F59300"/>
<path d="M210.231 359.619C211.754 359.619 212.989 358.389 212.989 356.871C212.989 355.353 211.754 354.122 210.231 354.122C208.708 354.122 207.473 355.353 207.473 356.871C207.473 358.389 208.708 359.619 210.231 359.619Z" fill="#F59300"/>
<path d="M240.866 359.619C242.389 359.619 243.624 358.389 243.624 356.871C243.624 355.353 242.389 354.122 240.866 354.122C239.342 354.122 238.107 355.353 238.107 356.871C238.107 358.389 239.342 359.619 240.866 359.619Z" fill="#F59300"/>
<path d="M271.501 359.619C273.024 359.619 274.259 358.389 274.259 356.871C274.259 355.353 273.024 354.122 271.501 354.122C269.977 354.122 268.742 355.353 268.742 356.871C268.742 358.389 269.977 359.619 271.501 359.619Z" fill="#F59300"/>
</g>
<defs>
<filter id="filter0_d" x="394.665" y="125.247" width="8.81335" height="10.4401" filterUnits="userSpaceOnUse" color-interpolation-filters="sRGB">
<feFlood flood-opacity="0" result="BackgroundImageFix"/>
<feColorMatrix in="SourceAlpha" type="matrix" values="0 0 0 0 0 0 0 0 0 0 0 0 0 0 0 0 0 0 127 0"/>
<feOffset/>
<feGaussianBlur stdDeviation="2"/>
<feColorMatrix type="matrix" values="0 0 0 0 1 0 0 0 0 1 0 0 0 0 1 0 0 0 0.5 0"/>
<feBlend mode="normal" in2="BackgroundImageFix" result="effect1_dropShadow"/>
<feBlend mode="normal" in="SourceGraphic" in2="effect1_dropShadow" result="shape"/>
</filter>
<filter id="filter1_d" x="393.853" y="126.061" width="10.4401" height="8.81335" filterUnits="userSpaceOnUse" color-interpolation-filters="sRGB">
<feFlood flood-opacity="0" result="BackgroundImageFix"/>
<feColorMatrix in="SourceAlpha" type="matrix" values="0 0 0 0 0 0 0 0 0 0 0 0 0 0 0 0 0 0 127 0"/>
<feOffset/>
<feGaussianBlur stdDeviation="2"/>
<feColorMatrix type="matrix" values="0 0 0 0 1 0 0 0 0 1 0 0 0 0 1 0 0 0 0.5 0"/>
<feBlend mode="normal" in2="BackgroundImageFix" result="effect1_dropShadow"/>
<feBlend mode="normal" in="SourceGraphic" in2="effect1_dropShadow" result="shape"/>
</filter>
<filter id="filter2_d" x="394.665" y="125.247" width="8.81335" height="10.4401" filterUnits="userSpaceOnUse" color-interpolation-filters="sRGB">
<feFlood flood-opacity="0" result="BackgroundImageFix"/>
<feColorMatrix in="SourceAlpha" type="matrix" values="0 0 0 0 0 0 0 0 0 0 0 0 0 0 0 0 0 0 127 0"/>
<feOffset/>
<feGaussianBlur stdDeviation="2"/>
<feColorMatrix type="matrix" values="0 0 0 0 1 0 0 0 0 1 0 0 0 0 1 0 0 0 0.5 0"/>
<feBlend mode="normal" in2="BackgroundImageFix" result="effect1_dropShadow"/>
<feBlend mode="normal" in="SourceGraphic" in2="effect1_dropShadow" result="shape"/>
</filter>
<filter id="filter3_d" x="393.853" y="126.061" width="10.4401" height="8.81335" filterUnits="userSpaceOnUse" color-interpolation-filters="sRGB">
<feFlood flood-opacity="0" result="BackgroundImageFix"/>
<feColorMatrix in="SourceAlpha" type="matrix" values="0 0 0 0 0 0 0 0 0 0 0 0 0 0 0 0 0 0 127 0"/>
<feOffset/>
<feGaussianBlur stdDeviation="2"/>
<feColorMatrix type="matrix" values="0 0 0 0 1 0 0 0 0 1 0 0 0 0 1 0 0 0 0.5 0"/>
<feBlend mode="normal" in2="BackgroundImageFix" result="effect1_dropShadow"/>
<feBlend mode="normal" in="SourceGraphic" in2="effect1_dropShadow" result="shape"/>
</filter>
<filter id="filter4_d" x="420.693" y="60.1807" width="8.81335" height="10.4401" filterUnits="userSpaceOnUse" color-interpolation-filters="sRGB">
<feFlood flood-opacity="0" result="BackgroundImageFix"/>
<feColorMatrix in="SourceAlpha" type="matrix" values="0 0 0 0 0 0 0 0 0 0 0 0 0 0 0 0 0 0 127 0"/>
<feOffset/>
<feGaussianBlur stdDeviation="2"/>
<feColorMatrix type="matrix" values="0 0 0 0 1 0 0 0 0 1 0 0 0 0 1 0 0 0 0.5 0"/>
<feBlend mode="normal" in2="BackgroundImageFix" result="effect1_dropShadow"/>
<feBlend mode="normal" in="SourceGraphic" in2="effect1_dropShadow" result="shape"/>
</filter>
<filter id="filter5_d" x="419.881" y="60.9941" width="10.4401" height="8.81335" filterUnits="userSpaceOnUse" color-interpolation-filters="sRGB">
<feFlood flood-opacity="0" result="BackgroundImageFix"/>
<feColorMatrix in="SourceAlpha" type="matrix" values="0 0 0 0 0 0 0 0 0 0 0 0 0 0 0 0 0 0 127 0"/>
<feOffset/>
<feGaussianBlur stdDeviation="2"/>
<feColorMatrix type="matrix" values="0 0 0 0 1 0 0 0 0 1 0 0 0 0 1 0 0 0 0.5 0"/>
<feBlend mode="normal" in2="BackgroundImageFix" result="effect1_dropShadow"/>
<feBlend mode="normal" in="SourceGraphic" in2="effect1_dropShadow" result="shape"/>
</filter>
<filter id="filter6_d" x="354.813" y="82.9531" width="8.81335" height="10.4401" filterUnits="userSpaceOnUse" color-interpolation-filters="sRGB">
<feFlood flood-opacity="0" result="BackgroundImageFix"/>
<feColorMatrix in="SourceAlpha" type="matrix" values="0 0 0 0 0 0 0 0 0 0 0 0 0 0 0 0 0 0 127 0"/>
<feOffset/>
<feGaussianBlur stdDeviation="2"/>
<feColorMatrix type="matrix" values="0 0 0 0 1 0 0 0 0 1 0 0 0 0 1 0 0 0 0.5 0"/>
<feBlend mode="normal" in2="BackgroundImageFix" result="effect1_dropShadow"/>
<feBlend mode="normal" in="SourceGraphic" in2="effect1_dropShadow" result="shape"/>
</filter>
<filter id="filter7_d" x="354" y="83.7666" width="10.4401" height="8.81335" filterUnits="userSpaceOnUse" color-interpolation-filters="sRGB">
<feFlood flood-opacity="0" result="BackgroundImageFix"/>
<feColorMatrix in="SourceAlpha" type="matrix" values="0 0 0 0 0 0 0 0 0 0 0 0 0 0 0 0 0 0 127 0"/>
<feOffset/>
<feGaussianBlur stdDeviation="2"/>
<feColorMatrix type="matrix" values="0 0 0 0 1 0 0 0 0 1 0 0 0 0 1 0 0 0 0.5 0"/>
<feBlend mode="normal" in2="BackgroundImageFix" result="effect1_dropShadow"/>
<feBlend mode="normal" in="SourceGraphic" in2="effect1_dropShadow" result="shape"/>
</filter>
<filter id="filter8_d" x="99.4199" y="220.41" width="8.81335" height="10.4401" filterUnits="userSpaceOnUse" color-interpolation-filters="sRGB">
<feFlood flood-opacity="0" result="BackgroundImageFix"/>
<feColorMatrix in="SourceAlpha" type="matrix" values="0 0 0 0 0 0 0 0 0 0 0 0 0 0 0 0 0 0 127 0"/>
<feOffset/>
<feGaussianBlur stdDeviation="2"/>
<feColorMatrix type="matrix" values="0 0 0 0 1 0 0 0 0 1 0 0 0 0 1 0 0 0 0.5 0"/>
<feBlend mode="normal" in2="BackgroundImageFix" result="effect1_dropShadow"/>
<feBlend mode="normal" in="SourceGraphic" in2="effect1_dropShadow" result="shape"/>
</filter>
<filter id="filter9_d" x="98.6074" y="221.224" width="10.4401" height="8.81335" filterUnits="userSpaceOnUse" color-interpolation-filters="sRGB">
<feFlood flood-opacity="0" result="BackgroundImageFix"/>
<feColorMatrix in="SourceAlpha" type="matrix" values="0 0 0 0 0 0 0 0 0 0 0 0 0 0 0 0 0 0 127 0"/>
<feOffset/>
<feGaussianBlur stdDeviation="2"/>
<feColorMatrix type="matrix" values="0 0 0 0 1 0 0 0 0 1 0 0 0 0 1 0 0 0 0.5 0"/>
<feBlend mode="normal" in2="BackgroundImageFix" result="effect1_dropShadow"/>
<feBlend mode="normal" in="SourceGraphic" in2="effect1_dropShadow" result="shape"/>
</filter>
<filter id="filter10_d" x="284.865" y="82.9531" width="8.81335" height="10.4401" filterUnits="userSpaceOnUse" color-interpolation-filters="sRGB">
<feFlood flood-opacity="0" result="BackgroundImageFix"/>
<feColorMatrix in="SourceAlpha" type="matrix" values="0 0 0 0 0 0 0 0 0 0 0 0 0 0 0 0 0 0 127 0"/>
<feOffset/>
<feGaussianBlur stdDeviation="2"/>
<feColorMatrix type="matrix" values="0 0 0 0 1 0 0 0 0 1 0 0 0 0 1 0 0 0 0.5 0"/>
<feBlend mode="normal" in2="BackgroundImageFix" result="effect1_dropShadow"/>
<feBlend mode="normal" in="SourceGraphic" in2="effect1_dropShadow" result="shape"/>
</filter>
<filter id="filter11_d" x="284.052" y="83.7666" width="10.4401" height="8.81335" filterUnits="userSpaceOnUse" color-interpolation-filters="sRGB">
<feFlood flood-opacity="0" result="BackgroundImageFix"/>
<feColorMatrix in="SourceAlpha" type="matrix" values="0 0 0 0 0 0 0 0 0 0 0 0 0 0 0 0 0 0 127 0"/>
<feOffset/>
<feGaussianBlur stdDeviation="2"/>
<feColorMatrix type="matrix" values="0 0 0 0 1 0 0 0 0 1 0 0 0 0 1 0 0 0 0.5 0"/>
<feBlend mode="normal" in2="BackgroundImageFix" result="effect1_dropShadow"/>
<feBlend mode="normal" in="SourceGraphic" in2="effect1_dropShadow" result="shape"/>
</filter>
<filter id="filter12_d" x="191.328" y="149.648" width="8.81335" height="10.4401" filterUnits="userSpaceOnUse" color-interpolation-filters="sRGB">
<feFlood flood-opacity="0" result="BackgroundImageFix"/>
<feColorMatrix in="SourceAlpha" type="matrix" values="0 0 0 0 0 0 0 0 0 0 0 0 0 0 0 0 0 0 127 0"/>
<feOffset/>
<feGaussianBlur stdDeviation="2"/>
<feColorMatrix type="matrix" values="0 0 0 0 1 0 0 0 0 1 0 0 0 0 1 0 0 0 0.5 0"/>
<feBlend mode="normal" in2="BackgroundImageFix" result="effect1_dropShadow"/>
<feBlend mode="normal" in="SourceGraphic" in2="effect1_dropShadow" result="shape"/>
</filter>
<filter id="filter13_d" x="190.516" y="150.462" width="10.4401" height="8.81335" filterUnits="userSpaceOnUse" color-interpolation-filters="sRGB">
<feFlood flood-opacity="0" result="BackgroundImageFix"/>
<feColorMatrix in="SourceAlpha" type="matrix" values="0 0 0 0 0 0 0 0 0 0 0 0 0 0 0 0 0 0 127 0"/>
<feOffset/>
<feGaussianBlur stdDeviation="2"/>
<feColorMatrix type="matrix" values="0 0 0 0 1 0 0 0 0 1 0 0 0 0 1 0 0 0 0.5 0"/>
<feBlend mode="normal" in2="BackgroundImageFix" result="effect1_dropShadow"/>
<feBlend mode="normal" in="SourceGraphic" in2="effect1_dropShadow" result="shape"/>
</filter>
<filter id="filter14_d" x="90.4717" y="149.648" width="8.81335" height="10.4401" filterUnits="userSpaceOnUse" color-interpolation-filters="sRGB">
<feFlood flood-opacity="0" result="BackgroundImageFix"/>
<feColorMatrix in="SourceAlpha" type="matrix" values="0 0 0 0 0 0 0 0 0 0 0 0 0 0 0 0 0 0 127 0"/>
<feOffset/>
<feGaussianBlur stdDeviation="2"/>
<feColorMatrix type="matrix" values="0 0 0 0 1 0 0 0 0 1 0 0 0 0 1 0 0 0 0.5 0"/>
<feBlend mode="normal" in2="BackgroundImageFix" result="effect1_dropShadow"/>
<feBlend mode="normal" in="SourceGraphic" in2="effect1_dropShadow" result="shape"/>
</filter>
<filter id="filter15_d" x="89.6602" y="150.462" width="10.4401" height="8.81335" filterUnits="userSpaceOnUse" color-interpolation-filters="sRGB">
<feFlood flood-opacity="0" result="BackgroundImageFix"/>
<feColorMatrix in="SourceAlpha" type="matrix" values="0 0 0 0 0 0 0 0 0 0 0 0 0 0 0 0 0 0 127 0"/>
<feOffset/>
<feGaussianBlur stdDeviation="2"/>
<feColorMatrix type="matrix" values="0 0 0 0 1 0 0 0 0 1 0 0 0 0 1 0 0 0 0.5 0"/>
<feBlend mode="normal" in2="BackgroundImageFix" result="effect1_dropShadow"/>
<feBlend mode="normal" in="SourceGraphic" in2="effect1_dropShadow" result="shape"/>
</filter>
<filter id="filter16_d" x="129.513" y="73.1943" width="8.81335" height="10.4401" filterUnits="userSpaceOnUse" color-interpolation-filters="sRGB">
<feFlood flood-opacity="0" result="BackgroundImageFix"/>
<feColorMatrix in="SourceAlpha" type="matrix" values="0 0 0 0 0 0 0 0 0 0 0 0 0 0 0 0 0 0 127 0"/>
<feOffset/>
<feGaussianBlur stdDeviation="2"/>
<feColorMatrix type="matrix" values="0 0 0 0 1 0 0 0 0 1 0 0 0 0 1 0 0 0 0.5 0"/>
<feBlend mode="normal" in2="BackgroundImageFix" result="effect1_dropShadow"/>
<feBlend mode="normal" in="SourceGraphic" in2="effect1_dropShadow" result="shape"/>
</filter>
<filter id="filter17_d" x="128.7" y="74.0078" width="10.4401" height="8.81335" filterUnits="userSpaceOnUse" color-interpolation-filters="sRGB">
<feFlood flood-opacity="0" result="BackgroundImageFix"/>
<feColorMatrix in="SourceAlpha" type="matrix" values="0 0 0 0 0 0 0 0 0 0 0 0 0 0 0 0 0 0 127 0"/>
<feOffset/>
<feGaussianBlur stdDeviation="2"/>
<feColorMatrix type="matrix" values="0 0 0 0 1 0 0 0 0 1 0 0 0 0 1 0 0 0 0.5 0"/>
<feBlend mode="normal" in2="BackgroundImageFix" result="effect1_dropShadow"/>
<feBlend mode="normal" in="SourceGraphic" in2="effect1_dropShadow" result="shape"/>
</filter>
<filter id="filter18_d" x="214.917" y="82.9531" width="8.81335" height="10.4401" filterUnits="userSpaceOnUse" color-interpolation-filters="sRGB">
<feFlood flood-opacity="0" result="BackgroundImageFix"/>
<feColorMatrix in="SourceAlpha" type="matrix" values="0 0 0 0 0 0 0 0 0 0 0 0 0 0 0 0 0 0 127 0"/>
<feOffset/>
<feGaussianBlur stdDeviation="2"/>
<feColorMatrix type="matrix" values="0 0 0 0 1 0 0 0 0 1 0 0 0 0 1 0 0 0 0.5 0"/>
<feBlend mode="normal" in2="BackgroundImageFix" result="effect1_dropShadow"/>
<feBlend mode="normal" in="SourceGraphic" in2="effect1_dropShadow" result="shape"/>
</filter>
<filter id="filter19_d" x="214.104" y="83.7666" width="10.4401" height="8.81335" filterUnits="userSpaceOnUse" color-interpolation-filters="sRGB">
<feFlood flood-opacity="0" result="BackgroundImageFix"/>
<feColorMatrix in="SourceAlpha" type="matrix" values="0 0 0 0 0 0 0 0 0 0 0 0 0 0 0 0 0 0 127 0"/>
<feOffset/>
<feGaussianBlur stdDeviation="2"/>
<feColorMatrix type="matrix" values="0 0 0 0 1 0 0 0 0 1 0 0 0 0 1 0 0 0 0.5 0"/>
<feBlend mode="normal" in2="BackgroundImageFix" result="effect1_dropShadow"/>
<feBlend mode="normal" in="SourceGraphic" in2="effect1_dropShadow" result="shape"/>
</filter>
<filter id="filter20_d" x="251.516" y="47.9785" width="8.81335" height="10.4401" filterUnits="userSpaceOnUse" color-interpolation-filters="sRGB">
<feFlood flood-opacity="0" result="BackgroundImageFix"/>
<feColorMatrix in="SourceAlpha" type="matrix" values="0 0 0 0 0 0 0 0 0 0 0 0 0 0 0 0 0 0 127 0"/>
<feOffset/>
<feGaussianBlur stdDeviation="2"/>
<feColorMatrix type="matrix" values="0 0 0 0 1 0 0 0 0 1 0 0 0 0 1 0 0 0 0.5 0"/>
<feBlend mode="normal" in2="BackgroundImageFix" result="effect1_dropShadow"/>
<feBlend mode="normal" in="SourceGraphic" in2="effect1_dropShadow" result="shape"/>
</filter>
<filter id="filter21_d" x="250.703" y="48.791" width="10.4401" height="8.81335" filterUnits="userSpaceOnUse" color-interpolation-filters="sRGB">
<feFlood flood-opacity="0" result="BackgroundImageFix"/>
<feColorMatrix in="SourceAlpha" type="matrix" values="0 0 0 0 0 0 0 0 0 0 0 0 0 0 0 0 0 0 127 0"/>
<feOffset/>
<feGaussianBlur stdDeviation="2"/>
<feColorMatrix type="matrix" values="0 0 0 0 1 0 0 0 0 1 0 0 0 0 1 0 0 0 0.5 0"/>
<feBlend mode="normal" in2="BackgroundImageFix" result="effect1_dropShadow"/>
<feBlend mode="normal" in="SourceGraphic" in2="effect1_dropShadow" result="shape"/>
</filter>
<filter id="filter22_d" x="314.957" y="40.6592" width="8.81335" height="10.4401" filterUnits="userSpaceOnUse" color-interpolation-filters="sRGB">
<feFlood flood-opacity="0" result="BackgroundImageFix"/>
<feColorMatrix in="SourceAlpha" type="matrix" values="0 0 0 0 0 0 0 0 0 0 0 0 0 0 0 0 0 0 127 0"/>
<feOffset/>
<feGaussianBlur stdDeviation="2"/>
<feColorMatrix type="matrix" values="0 0 0 0 1 0 0 0 0 1 0 0 0 0 1 0 0 0 0.5 0"/>
<feBlend mode="normal" in2="BackgroundImageFix" result="effect1_dropShadow"/>
<feBlend mode="normal" in="SourceGraphic" in2="effect1_dropShadow" result="shape"/>
</filter>
<filter id="filter23_d" x="314.145" y="41.4727" width="10.4401" height="8.81335" filterUnits="userSpaceOnUse" color-interpolation-filters="sRGB">
<feFlood flood-opacity="0" result="BackgroundImageFix"/>
<feColorMatrix in="SourceAlpha" type="matrix" values="0 0 0 0 0 0 0 0 0 0 0 0 0 0 0 0 0 0 127 0"/>
<feOffset/>
<feGaussianBlur stdDeviation="2"/>
<feColorMatrix type="matrix" values="0 0 0 0 1 0 0 0 0 1 0 0 0 0 1 0 0 0 0.5 0"/>
<feBlend mode="normal" in2="BackgroundImageFix" result="effect1_dropShadow"/>
<feBlend mode="normal" in="SourceGraphic" in2="effect1_dropShadow" result="shape"/>
</filter>
<filter id="filter24_d" x="116.5" y="305.813" width="8.81335" height="10.4401" filterUnits="userSpaceOnUse" color-interpolation-filters="sRGB">
<feFlood flood-opacity="0" result="BackgroundImageFix"/>
<feColorMatrix in="SourceAlpha" type="matrix" values="0 0 0 0 0 0 0 0 0 0 0 0 0 0 0 0 0 0 127 0"/>
<feOffset/>
<feGaussianBlur stdDeviation="2"/>
<feColorMatrix type="matrix" values="0 0 0 0 1 0 0 0 0 1 0 0 0 0 1 0 0 0 0.5 0"/>
<feBlend mode="normal" in2="BackgroundImageFix" result="effect1_dropShadow"/>
<feBlend mode="normal" in="SourceGraphic" in2="effect1_dropShadow" result="shape"/>
</filter>
<filter id="filter25_d" x="115.687" y="306.628" width="10.4401" height="8.81335" filterUnits="userSpaceOnUse" color-interpolation-filters="sRGB">
<feFlood flood-opacity="0" result="BackgroundImageFix"/>
<feColorMatrix in="SourceAlpha" type="matrix" values="0 0 0 0 0 0 0 0 0 0 0 0 0 0 0 0 0 0 127 0"/>
<feOffset/>
<feGaussianBlur stdDeviation="2"/>
<feColorMatrix type="matrix" values="0 0 0 0 1 0 0 0 0 1 0 0 0 0 1 0 0 0 0.5 0"/>
<feBlend mode="normal" in2="BackgroundImageFix" result="effect1_dropShadow"/>
<feBlend mode="normal" in="SourceGraphic" in2="effect1_dropShadow" result="shape"/>
</filter>
<filter id="filter26_d" x="116.5" y="305.813" width="8.81335" height="10.4401" filterUnits="userSpaceOnUse" color-interpolation-filters="sRGB">
<feFlood flood-opacity="0" result="BackgroundImageFix"/>
<feColorMatrix in="SourceAlpha" type="matrix" values="0 0 0 0 0 0 0 0 0 0 0 0 0 0 0 0 0 0 127 0"/>
<feOffset/>
<feGaussianBlur stdDeviation="2"/>
<feColorMatrix type="matrix" values="0 0 0 0 1 0 0 0 0 1 0 0 0 0 1 0 0 0 0.5 0"/>
<feBlend mode="normal" in2="BackgroundImageFix" result="effect1_dropShadow"/>
<feBlend mode="normal" in="SourceGraphic" in2="effect1_dropShadow" result="shape"/>
</filter>
<filter id="filter27_d" x="115.687" y="306.628" width="10.4401" height="8.81335" filterUnits="userSpaceOnUse" color-interpolation-filters="sRGB">
<feFlood flood-opacity="0" result="BackgroundImageFix"/>
<feColorMatrix in="SourceAlpha" type="matrix" values="0 0 0 0 0 0 0 0 0 0 0 0 0 0 0 0 0 0 127 0"/>
<feOffset/>
<feGaussianBlur stdDeviation="2"/>
<feColorMatrix type="matrix" values="0 0 0 0 1 0 0 0 0 1 0 0 0 0 1 0 0 0 0.5 0"/>
<feBlend mode="normal" in2="BackgroundImageFix" result="effect1_dropShadow"/>
<feBlend mode="normal" in="SourceGraphic" in2="effect1_dropShadow" result="shape"/>
</filter>
<filter id="filter28_d" x="90.4727" y="370.88" width="8.81335" height="10.4401" filterUnits="userSpaceOnUse" color-interpolation-filters="sRGB">
<feFlood flood-opacity="0" result="BackgroundImageFix"/>
<feColorMatrix in="SourceAlpha" type="matrix" values="0 0 0 0 0 0 0 0 0 0 0 0 0 0 0 0 0 0 127 0"/>
<feOffset/>
<feGaussianBlur stdDeviation="2"/>
<feColorMatrix type="matrix" values="0 0 0 0 1 0 0 0 0 1 0 0 0 0 1 0 0 0 0.5 0"/>
<feBlend mode="normal" in2="BackgroundImageFix" result="effect1_dropShadow"/>
<feBlend mode="normal" in="SourceGraphic" in2="effect1_dropShadow" result="shape"/>
</filter>
<filter id="filter29_d" x="89.6582" y="371.693" width="10.4401" height="8.81335" filterUnits="userSpaceOnUse" color-interpolation-filters="sRGB">
<feFlood flood-opacity="0" result="BackgroundImageFix"/>
<feColorMatrix in="SourceAlpha" type="matrix" values="0 0 0 0 0 0 0 0 0 0 0 0 0 0 0 0 0 0 127 0"/>
<feOffset/>
<feGaussianBlur stdDeviation="2"/>
<feColorMatrix type="matrix" values="0 0 0 0 1 0 0 0 0 1 0 0 0 0 1 0 0 0 0.5 0"/>
<feBlend mode="normal" in2="BackgroundImageFix" result="effect1_dropShadow"/>
<feBlend mode="normal" in="SourceGraphic" in2="effect1_dropShadow" result="shape"/>
</filter>
<filter id="filter30_d" x="255.585" y="304.187" width="8.81335" height="10.4401" filterUnits="userSpaceOnUse" color-interpolation-filters="sRGB">
<feFlood flood-opacity="0" result="BackgroundImageFix"/>
<feColorMatrix in="SourceAlpha" type="matrix" values="0 0 0 0 0 0 0 0 0 0 0 0 0 0 0 0 0 0 127 0"/>
<feOffset/>
<feGaussianBlur stdDeviation="2"/>
<feColorMatrix type="matrix" values="0 0 0 0 1 0 0 0 0 1 0 0 0 0 1 0 0 0 0.5 0"/>
<feBlend mode="normal" in2="BackgroundImageFix" result="effect1_dropShadow"/>
<feBlend mode="normal" in="SourceGraphic" in2="effect1_dropShadow" result="shape"/>
</filter>
<filter id="filter31_d" x="254.771" y="305" width="10.4401" height="8.81335" filterUnits="userSpaceOnUse" color-interpolation-filters="sRGB">
<feFlood flood-opacity="0" result="BackgroundImageFix"/>
<feColorMatrix in="SourceAlpha" type="matrix" values="0 0 0 0 0 0 0 0 0 0 0 0 0 0 0 0 0 0 127 0"/>
<feOffset/>
<feGaussianBlur stdDeviation="2"/>
<feColorMatrix type="matrix" values="0 0 0 0 1 0 0 0 0 1 0 0 0 0 1 0 0 0 0.5 0"/>
<feBlend mode="normal" in2="BackgroundImageFix" result="effect1_dropShadow"/>
<feBlend mode="normal" in="SourceGraphic" in2="effect1_dropShadow" result="shape"/>
</filter>
<filter id="filter32_d" x="411.748" y="210.65" width="8.81335" height="10.4401" filterUnits="userSpaceOnUse" color-interpolation-filters="sRGB">
<feFlood flood-opacity="0" result="BackgroundImageFix"/>
<feColorMatrix in="SourceAlpha" type="matrix" values="0 0 0 0 0 0 0 0 0 0 0 0 0 0 0 0 0 0 127 0"/>
<feOffset/>
<feGaussianBlur stdDeviation="2"/>
<feColorMatrix type="matrix" values="0 0 0 0 1 0 0 0 0 1 0 0 0 0 1 0 0 0 0.5 0"/>
<feBlend mode="normal" in2="BackgroundImageFix" result="effect1_dropShadow"/>
<feBlend mode="normal" in="SourceGraphic" in2="effect1_dropShadow" result="shape"/>
</filter>
<filter id="filter33_d" x="410.934" y="211.464" width="10.4401" height="8.81335" filterUnits="userSpaceOnUse" color-interpolation-filters="sRGB">
<feFlood flood-opacity="0" result="BackgroundImageFix"/>
<feColorMatrix in="SourceAlpha" type="matrix" values="0 0 0 0 0 0 0 0 0 0 0 0 0 0 0 0 0 0 127 0"/>
<feOffset/>
<feGaussianBlur stdDeviation="2"/>
<feColorMatrix type="matrix" values="0 0 0 0 1 0 0 0 0 1 0 0 0 0 1 0 0 0 0.5 0"/>
<feBlend mode="normal" in2="BackgroundImageFix" result="effect1_dropShadow"/>
<feBlend mode="normal" in="SourceGraphic" in2="effect1_dropShadow" result="shape"/>
</filter>
<filter id="filter34_d" x="180.759" y="335.906" width="8.81335" height="10.4401" filterUnits="userSpaceOnUse" color-interpolation-filters="sRGB">
<feFlood flood-opacity="0" result="BackgroundImageFix"/>
<feColorMatrix in="SourceAlpha" type="matrix" values="0 0 0 0 0 0 0 0 0 0 0 0 0 0 0 0 0 0 127 0"/>
<feOffset/>
<feGaussianBlur stdDeviation="2"/>
<feColorMatrix type="matrix" values="0 0 0 0 1 0 0 0 0 1 0 0 0 0 1 0 0 0 0.5 0"/>
<feBlend mode="normal" in2="BackgroundImageFix" result="effect1_dropShadow"/>
<feBlend mode="normal" in="SourceGraphic" in2="effect1_dropShadow" result="shape"/>
</filter>
<filter id="filter35_d" x="179.944" y="336.72" width="10.4401" height="8.81335" filterUnits="userSpaceOnUse" color-interpolation-filters="sRGB">
<feFlood flood-opacity="0" result="BackgroundImageFix"/>
<feColorMatrix in="SourceAlpha" type="matrix" values="0 0 0 0 0 0 0 0 0 0 0 0 0 0 0 0 0 0 127 0"/>
<feOffset/>
<feGaussianBlur stdDeviation="2"/>
<feColorMatrix type="matrix" values="0 0 0 0 1 0 0 0 0 1 0 0 0 0 1 0 0 0 0.5 0"/>
<feBlend mode="normal" in2="BackgroundImageFix" result="effect1_dropShadow"/>
<feBlend mode="normal" in="SourceGraphic" in2="effect1_dropShadow" result="shape"/>
</filter>
<filter id="filter36_d" x="319.84" y="281.411" width="8.81335" height="10.4401" filterUnits="userSpaceOnUse" color-interpolation-filters="sRGB">
<feFlood flood-opacity="0" result="BackgroundImageFix"/>
<feColorMatrix in="SourceAlpha" type="matrix" values="0 0 0 0 0 0 0 0 0 0 0 0 0 0 0 0 0 0 127 0"/>
<feOffset/>
<feGaussianBlur stdDeviation="2"/>
<feColorMatrix type="matrix" values="0 0 0 0 1 0 0 0 0 1 0 0 0 0 1 0 0 0 0.5 0"/>
<feBlend mode="normal" in2="BackgroundImageFix" result="effect1_dropShadow"/>
<feBlend mode="normal" in="SourceGraphic" in2="effect1_dropShadow" result="shape"/>
</filter>
<filter id="filter37_d" x="319.025" y="282.225" width="10.4401" height="8.81335" filterUnits="userSpaceOnUse" color-interpolation-filters="sRGB">
<feFlood flood-opacity="0" result="BackgroundImageFix"/>
<feColorMatrix in="SourceAlpha" type="matrix" values="0 0 0 0 0 0 0 0 0 0 0 0 0 0 0 0 0 0 127 0"/>
<feOffset/>
<feGaussianBlur stdDeviation="2"/>
<feColorMatrix type="matrix" values="0 0 0 0 1 0 0 0 0 1 0 0 0 0 1 0 0 0 0.5 0"/>
<feBlend mode="normal" in2="BackgroundImageFix" result="effect1_dropShadow"/>
<feBlend mode="normal" in="SourceGraphic" in2="effect1_dropShadow" result="shape"/>
</filter>
<filter id="filter38_d" x="420.695" y="281.411" width="8.81335" height="10.4401" filterUnits="userSpaceOnUse" color-interpolation-filters="sRGB">
<feFlood flood-opacity="0" result="BackgroundImageFix"/>
<feColorMatrix in="SourceAlpha" type="matrix" values="0 0 0 0 0 0 0 0 0 0 0 0 0 0 0 0 0 0 127 0"/>
<feOffset/>
<feGaussianBlur stdDeviation="2"/>
<feColorMatrix type="matrix" values="0 0 0 0 1 0 0 0 0 1 0 0 0 0 1 0 0 0 0.5 0"/>
<feBlend mode="normal" in2="BackgroundImageFix" result="effect1_dropShadow"/>
<feBlend mode="normal" in="SourceGraphic" in2="effect1_dropShadow" result="shape"/>
</filter>
<filter id="filter39_d" x="419.882" y="282.226" width="10.4401" height="8.81335" filterUnits="userSpaceOnUse" color-interpolation-filters="sRGB">
<feFlood flood-opacity="0" result="BackgroundImageFix"/>
<feColorMatrix in="SourceAlpha" type="matrix" values="0 0 0 0 0 0 0 0 0 0 0 0 0 0 0 0 0 0 127 0"/>
<feOffset/>
<feGaussianBlur stdDeviation="2"/>
<feColorMatrix type="matrix" values="0 0 0 0 1 0 0 0 0 1 0 0 0 0 1 0 0 0 0.5 0"/>
<feBlend mode="normal" in2="BackgroundImageFix" result="effect1_dropShadow"/>
<feBlend mode="normal" in="SourceGraphic" in2="effect1_dropShadow" result="shape"/>
</filter>
<filter id="filter40_d" x="383.281" y="371.694" width="8.81335" height="10.4401" filterUnits="userSpaceOnUse" color-interpolation-filters="sRGB">
<feFlood flood-opacity="0" result="BackgroundImageFix"/>
<feColorMatrix in="SourceAlpha" type="matrix" values="0 0 0 0 0 0 0 0 0 0 0 0 0 0 0 0 0 0 127 0"/>
<feOffset/>
<feGaussianBlur stdDeviation="2"/>
<feColorMatrix type="matrix" values="0 0 0 0 1 0 0 0 0 1 0 0 0 0 1 0 0 0 0.5 0"/>
<feBlend mode="normal" in2="BackgroundImageFix" result="effect1_dropShadow"/>
<feBlend mode="normal" in="SourceGraphic" in2="effect1_dropShadow" result="shape"/>
</filter>
<filter id="filter41_d" x="382.467" y="372.508" width="10.4401" height="8.81335" filterUnits="userSpaceOnUse" color-interpolation-filters="sRGB">
<feFlood flood-opacity="0" result="BackgroundImageFix"/>
<feColorMatrix in="SourceAlpha" type="matrix" values="0 0 0 0 0 0 0 0 0 0 0 0 0 0 0 0 0 0 127 0"/>
<feOffset/>
<feGaussianBlur stdDeviation="2"/>
<feColorMatrix type="matrix" values="0 0 0 0 1 0 0 0 0 1 0 0 0 0 1 0 0 0 0.5 0"/>
<feBlend mode="normal" in2="BackgroundImageFix" result="effect1_dropShadow"/>
<feBlend mode="normal" in="SourceGraphic" in2="effect1_dropShadow" result="shape"/>
</filter>
<filter id="filter42_d" x="362.948" y="322.893" width="8.81335" height="10.4401" filterUnits="userSpaceOnUse" color-interpolation-filters="sRGB">
<feFlood flood-opacity="0" result="BackgroundImageFix"/>
<feColorMatrix in="SourceAlpha" type="matrix" values="0 0 0 0 0 0 0 0 0 0 0 0 0 0 0 0 0 0 127 0"/>
<feOffset/>
<feGaussianBlur stdDeviation="2"/>
<feColorMatrix type="matrix" values="0 0 0 0 1 0 0 0 0 1 0 0 0 0 1 0 0 0 0.5 0"/>
<feBlend mode="normal" in2="BackgroundImageFix" result="effect1_dropShadow"/>
<feBlend mode="normal" in="SourceGraphic" in2="effect1_dropShadow" result="shape"/>
</filter>
<filter id="filter43_d" x="362.133" y="323.706" width="10.4401" height="8.81335" filterUnits="userSpaceOnUse" color-interpolation-filters="sRGB">
<feFlood flood-opacity="0" result="BackgroundImageFix"/>
<feColorMatrix in="SourceAlpha" type="matrix" values="0 0 0 0 0 0 0 0 0 0 0 0 0 0 0 0 0 0 127 0"/>
<feOffset/>
<feGaussianBlur stdDeviation="2"/>
<feColorMatrix type="matrix" values="0 0 0 0 1 0 0 0 0 1 0 0 0 0 1 0 0 0 0.5 0"/>
<feBlend mode="normal" in2="BackgroundImageFix" result="effect1_dropShadow"/>
<feBlend mode="normal" in="SourceGraphic" in2="effect1_dropShadow" result="shape"/>
</filter>
<filter id="filter44_d" x="193.771" y="283.853" width="8.81335" height="10.4401" filterUnits="userSpaceOnUse" color-interpolation-filters="sRGB">
<feFlood flood-opacity="0" result="BackgroundImageFix"/>
<feColorMatrix in="SourceAlpha" type="matrix" values="0 0 0 0 0 0 0 0 0 0 0 0 0 0 0 0 0 0 127 0"/>
<feOffset/>
<feGaussianBlur stdDeviation="2"/>
<feColorMatrix type="matrix" values="0 0 0 0 1 0 0 0 0 1 0 0 0 0 1 0 0 0 0.5 0"/>
<feBlend mode="normal" in2="BackgroundImageFix" result="effect1_dropShadow"/>
<feBlend mode="normal" in="SourceGraphic" in2="effect1_dropShadow" result="shape"/>
</filter>
<filter id="filter45_d" x="192.956" y="284.666" width="10.4401" height="8.81335" filterUnits="userSpaceOnUse" color-interpolation-filters="sRGB">
<feFlood flood-opacity="0" result="BackgroundImageFix"/>
<feColorMatrix in="SourceAlpha" type="matrix" values="0 0 0 0 0 0 0 0 0 0 0 0 0 0 0 0 0 0 127 0"/>
<feOffset/>
<feGaussianBlur stdDeviation="2"/>
<feColorMatrix type="matrix" values="0 0 0 0 1 0 0 0 0 1 0 0 0 0 1 0 0 0 0.5 0"/>
<feBlend mode="normal" in2="BackgroundImageFix" result="effect1_dropShadow"/>
<feBlend mode="normal" in="SourceGraphic" in2="effect1_dropShadow" result="shape"/>
</filter>
<filter id="filter46_d" x="196.212" y="390.401" width="8.81335" height="10.4401" filterUnits="userSpaceOnUse" color-interpolation-filters="sRGB">
<feFlood flood-opacity="0" result="BackgroundImageFix"/>
<feColorMatrix in="SourceAlpha" type="matrix" values="0 0 0 0 0 0 0 0 0 0 0 0 0 0 0 0 0 0 127 0"/>
<feOffset/>
<feGaussianBlur stdDeviation="2"/>
<feColorMatrix type="matrix" values="0 0 0 0 1 0 0 0 0 1 0 0 0 0 1 0 0 0 0.5 0"/>
<feBlend mode="normal" in2="BackgroundImageFix" result="effect1_dropShadow"/>
<feBlend mode="normal" in="SourceGraphic" in2="effect1_dropShadow" result="shape"/>
</filter>
<filter id="filter47_d" x="195.397" y="391.214" width="10.4401" height="8.81335" filterUnits="userSpaceOnUse" color-interpolation-filters="sRGB">
<feFlood flood-opacity="0" result="BackgroundImageFix"/>
<feColorMatrix in="SourceAlpha" type="matrix" values="0 0 0 0 0 0 0 0 0 0 0 0 0 0 0 0 0 0 127 0"/>
<feOffset/>
<feGaussianBlur stdDeviation="2"/>
<feColorMatrix type="matrix" values="0 0 0 0 1 0 0 0 0 1 0 0 0 0 1 0 0 0 0.5 0"/>
<feBlend mode="normal" in2="BackgroundImageFix" result="effect1_dropShadow"/>
<feBlend mode="normal" in="SourceGraphic" in2="effect1_dropShadow" result="shape"/>
</filter>
<clipPath id="clip0">
<rect width="520" height="427" fill="white"/>
</clipPath>
<clipPath id="clip1">
<rect width="83.0059" height="140.776" fill="white" transform="matrix(-1 0 0 1 303.006 173)"/>
</clipPath>
</defs>
</svg>
