<svg width="60" height="60" viewBox="0 0 60 60" fill="none" xmlns="http://www.w3.org/2000/svg">
<path d="M51.3389 32.0298H46.6987C47.1717 33.3247 47.4301 34.7222 47.4301 36.1787V53.7158C47.4301 54.3231 47.3244 54.906 47.1321 55.4481H54.8033C57.6689 55.4481 60.0001 53.1168 60.0001 50.2513V40.691C60.0002 35.9153 56.1147 32.0298 51.3389 32.0298Z" fill="#E2E2E2"/>
<path d="M12.5701 36.1787C12.5701 34.7221 12.8285 33.3247 13.3015 32.0298H8.66135C3.88548 32.0298 0 35.9153 0 40.6911V50.2514C0 53.1169 2.33122 55.4482 5.19681 55.4482H12.8682C12.6758 54.9059 12.5701 54.3231 12.5701 53.7158V36.1787V36.1787Z" fill="#E2E2E2"/>
<path d="M35.3041 27.5176H24.696C19.9201 27.5176 16.0347 31.4031 16.0347 36.1789V53.7161C16.0347 54.6727 16.8102 55.4483 17.7669 55.4483H42.2332C43.1899 55.4483 43.9654 54.6728 43.9654 53.7161V36.1789C43.9654 31.4031 40.0799 27.5176 35.3041 27.5176Z" fill="#F59300"/>
<path d="M30.0003 4.55151C24.2567 4.55151 19.584 9.22426 19.584 14.968C19.584 18.8639 21.7343 22.2664 24.9098 24.0528C26.416 24.9001 28.1525 25.3843 30.0003 25.3843C31.8481 25.3843 33.5846 24.9001 35.0908 24.0528C38.2665 22.2664 40.4167 18.8638 40.4167 14.968C40.4167 9.22437 35.7439 4.55151 30.0003 4.55151Z" fill="#F59300"/>
<path d="M11.709 14.2605C7.41348 14.2605 3.91895 17.755 3.91895 22.0506C3.91895 26.3461 7.41348 29.8406 11.709 29.8406C12.7986 29.8406 13.8362 29.6149 14.7787 29.2092C16.4083 28.5076 17.752 27.2656 18.5835 25.71C19.1671 24.6181 19.4991 23.3725 19.4991 22.0506C19.4991 17.7552 16.0045 14.2605 11.709 14.2605Z" fill="#E2E2E2"/>
<path d="M48.291 14.2605C43.9955 14.2605 40.501 17.755 40.501 22.0506C40.501 23.3727 40.833 24.6183 41.4166 25.71C42.248 27.2658 43.5917 28.5077 45.2213 29.2092C46.1638 29.6149 47.2014 29.8406 48.291 29.8406C52.5865 29.8406 56.0811 26.3461 56.0811 22.0506C56.0811 17.755 52.5865 14.2605 48.291 14.2605Z" fill="#E2E2E2"/>
</svg>
