<svg width="16" height="16" viewBox="0 0 16 16" fill="none" xmlns="http://www.w3.org/2000/svg">
<path d="M7.99998 0C3.58172 0 0 3.58172 0 7.99998C0 12.4183 3.58172 16 7.99998 16C12.4183 16 16 12.4183 16 7.99998C15.9953 3.58369 12.4163 0.00472098 7.99998 0ZM8.57142 7.99998C8.57142 8.31559 8.31559 8.57142 7.99998 8.57142H3.42857C3.11297 8.57142 2.85713 8.31559 2.85713 7.99998C2.85713 7.68438 3.11297 7.42854 3.42857 7.42854H7.42858V3.42857C7.42858 3.11297 7.68441 2.85713 8.00002 2.85713C8.31562 2.85713 8.57142 3.11297 8.57142 3.42857V7.99998Z" fill="#AAAAAA"/>
</svg>
